<mxfile host="app.diagrams.net" agent="Mozilla/5.0 (X11; Linux x86_64) AppleWebKit/537.36 (KHTML, like Gecko) Chrome/136.0.0.0 Safari/537.36" version="27.0.9">
  <diagram name="Page-1" id="_udaBcLUZTv0gf5RthK_">
    <mxGraphModel dx="1240" dy="721" grid="1" gridSize="10" guides="1" tooltips="1" connect="1" arrows="1" fold="1" page="1" pageScale="1" pageWidth="850" pageHeight="1100" math="0" shadow="0">
      <root>
        <mxCell id="0" />
        <mxCell id="1" parent="0" />
        <mxCell id="wt083JTpK_vqgpHAAwVP-52" value="" style="rounded=0;whiteSpace=wrap;html=1;fillColor=none;strokeColor=#d79b00;strokeWidth=2;" vertex="1" parent="1">
          <mxGeometry x="417.98" y="273" width="282" height="177" as="geometry" />
        </mxCell>
        <mxCell id="wt083JTpK_vqgpHAAwVP-46" value="" style="rounded=0;whiteSpace=wrap;html=1;fillColor=none;strokeColor=#6c8ebf;strokeWidth=2;" vertex="1" parent="1">
          <mxGeometry x="11" y="273" width="310" height="177" as="geometry" />
        </mxCell>
        <mxCell id="wt083JTpK_vqgpHAAwVP-41" value="" style="rounded=0;whiteSpace=wrap;html=1;fillColor=none;strokeColor=#82b366;strokeWidth=2;" vertex="1" parent="1">
          <mxGeometry x="407.96" y="20" width="302.04" height="180" as="geometry" />
        </mxCell>
        <mxCell id="wt083JTpK_vqgpHAAwVP-34" value="" style="rounded=0;whiteSpace=wrap;html=1;fillColor=none;strokeColor=#b85450;strokeWidth=2;" vertex="1" parent="1">
          <mxGeometry x="11" y="10" width="279" height="200" as="geometry" />
        </mxCell>
        <mxCell id="wt083JTpK_vqgpHAAwVP-1" value="" style="shape=image;verticalLabelPosition=bottom;labelBackgroundColor=default;verticalAlign=top;aspect=fixed;imageAspect=0;image=https://static.vecteezy.com/system/resources/thumbnails/006/895/992/small_2x/computer-laptop-cartoon-illustration-icon-with-empty-lcd-panel-vector.jpg;" vertex="1" parent="1">
          <mxGeometry x="200" y="60" width="85.93" height="70" as="geometry" />
        </mxCell>
        <mxCell id="wt083JTpK_vqgpHAAwVP-2" value="" style="shape=image;verticalLabelPosition=bottom;labelBackgroundColor=default;verticalAlign=top;aspect=fixed;imageAspect=0;image=https://static.vecteezy.com/system/resources/thumbnails/006/895/992/small_2x/computer-laptop-cartoon-illustration-icon-with-empty-lcd-panel-vector.jpg;" vertex="1" parent="1">
          <mxGeometry x="222" y="282.5" width="85.93" height="70" as="geometry" />
        </mxCell>
        <mxCell id="wt083JTpK_vqgpHAAwVP-3" value="" style="shape=image;verticalLabelPosition=bottom;labelBackgroundColor=default;verticalAlign=top;aspect=fixed;imageAspect=0;image=https://static.vecteezy.com/system/resources/thumbnails/006/895/992/small_2x/computer-laptop-cartoon-illustration-icon-with-empty-lcd-panel-vector.jpg;" vertex="1" parent="1">
          <mxGeometry x="425" y="40" width="85.93" height="70" as="geometry" />
        </mxCell>
        <mxCell id="wt083JTpK_vqgpHAAwVP-56" style="edgeStyle=orthogonalEdgeStyle;rounded=0;orthogonalLoop=1;jettySize=auto;html=1;exitX=0;exitY=0.5;exitDx=0;exitDy=0;entryX=0.75;entryY=1;entryDx=0;entryDy=0;curved=1;strokeWidth=2;dashed=1;dashPattern=1 1;" edge="1" parent="1" source="wt083JTpK_vqgpHAAwVP-4" target="wt083JTpK_vqgpHAAwVP-53">
          <mxGeometry relative="1" as="geometry" />
        </mxCell>
        <mxCell id="wt083JTpK_vqgpHAAwVP-4" value="" style="shape=image;verticalLabelPosition=bottom;labelBackgroundColor=default;verticalAlign=top;aspect=fixed;imageAspect=0;image=https://static.vecteezy.com/system/resources/thumbnails/006/895/992/small_2x/computer-laptop-cartoon-illustration-icon-with-empty-lcd-panel-vector.jpg;" vertex="1" parent="1">
          <mxGeometry x="431.69" y="302.5" width="85.93" height="70" as="geometry" />
        </mxCell>
        <mxCell id="wt083JTpK_vqgpHAAwVP-8" value="" style="shape=image;verticalLabelPosition=bottom;labelBackgroundColor=default;verticalAlign=top;aspect=fixed;imageAspect=0;image=data:image/png,iVBORw0KGgoAAAANSUhEUgAAAlgAAADYCAYAAAA3SZ0tAAAABHNCSVQICAgIfAhkiAAAAAlwSFlzAAAQXwAAEF8BUWbSowAAABl0RVh0U29mdHdhcmUAd3d3Lmlua3NjYXBlLm9yZ5vuPBoAACAASURBVHic7J15fBvVub+fo12WvMl27KzOBklI2BOgEAIUaIGylMvyK9yWshQoXNrS2+22pfR2v4Xblrb0Ai0ta0lbKARSKJQdkhAIELLHjh3HSzbbkmXt+/n9cUarJVsKCUlgns9nPNKZmTNnJFnz1fu+532FlJJChBACOENbPg7MAvyADxjW1j7ADbQDbdrSJaVMjOhQR0dHR0dHR+cjhCgUWEKIY4DfAifuQX9xoBMltjaTFV5tUkr3+xuqjo6Ojo6Ozv5CCGECTgNmADXANqADWKsbV0aSJ7CEEP8DfAMwFO5YBTQIqAM8wE4JqcrO5UGJrjzhBXRKKeN7NnwdHR0dHR2dfY0QYhHwEDClyOatwP8Af5JSJj/QgR3ACCll2iV4F3B94Q6HCviCgCPSkkuoVVxAn4TugmUPhFcC6GKk8GqTUvbv4XXp6Ojo6Ojo7AWEEE6UtaphjF3vkVJ+cd+P6OAgLbCuA+7J3TAeuMoAJwtNU4n0EdpK5PaS3ScO9ErokbAtpQmvFOyoXHgBDFEgurSlQ0oZrbw7HR0dHR0dnUoQQpwGvJTT9E/gH8DhwCLgsJxtF0gpnyqjz1qgFYgA/VJK794b8YGBAGoNsDaVY/Y7XsC3BNhFdqdyBVamqWD/uIC+VL7o2paCHak9El5JlJrOFV2bgE1SyoHKu9PR0dHR0dEphhDiedSkN4C7pJQ35mwzAn8ArtKabpFS/qREPybgS8BXgckFm/3AX4BfSyk37MXh7zdMdXChN0dcXQhcK/K00l7BDEw3qCVXpMWB3rTwSq+TsH104WVEBdnNAM7J3SCEcKOJrYKlRxabMqmjo6Ojo6ODEMIMLAAmoe6vRwJHoTIJpNmWe4yUMimEWJvTNGGUU3wTKCq+gGrgWuASIcRxUsotlY3+wEOcC8/9Az4BcJNQaqXQ+rQ3LFjkirYSfeS2pYVXd1KJrm3aentyjyxeAEFyLF05S4ceZK+jo6Oj81FGCHEk8DQwcYxdE8AlUsol2nHVwApgnrb9SSnlp0uc4yXULEQAiTbRDTgUJejS0d5LpJQX7uGlHDCYamE+wCcpMAXtZ8zAdCPMMJIn0hJAb1ITXDnL9qTyG46CAzhGW3JJCCE6GCm8Nkspg3vvinR0dHR0dA5YfsbY4grABDxhMYiI1chG1L0118J1gRDicinlI0WODWnrHcAiKWVneoMQ4grgAe3pEWMNQggxDZiD8sBNQEmAMGrC3D+klHtoi9l7iM9D5Dmw/k6APd14AFiwivZbYjwCJby2p6AnAT3aujup1sE9cwxKoJeRwmujntNLR0dHR+fDghBiIfB6+vl4C9SYoD8G3oS6Ge4BG4DHgD5gEJiKir2aAtwtpbyhYAzjUcILlKOqVkoZGGXM7cAhJTZvA74kpfzHng197yAuha1tMO1no4ijg0FgFe1DW7tT0JPMF13dCehP7vEHZ4DicV59epyXjo6Ojs7BhBDiVdRsQADumQkn1Kp7aULAYBx2xGBTCNYHYV0AesLv65Q7gQullG/mjOEQVGWYNIuklK+POFLtOxt1z00CTwCrgN3AycC/AzZUWNCJUsq1xfr4IDDthPc2wrQoYN1fo9jHNBig0QjHWMgTaRE0i1cSuuNKdPVoS2x0mdSkLYsK2gNCiM2MFF6depZbHR0dHZ0DDSHEqeTcy1qtcJwTkMoAYRLKojXBCgtqoScK22OwJaSWSTbYGIR1PthdfvKk8cAKIcRjwGKgB2XdyuU0cqxqBRyNMnScKqXcmNP+gBDiL6g0Eg7gZuDqske1lxEN8N9u+P4PhRaMxYfPglXpNaWA3UkluLoTmvjSBNjQnuWojQNbGCm82qSUodEO1NHR0dHR2VcIIZ5Dm+gG8I0JcHkTCIO6JwoBUeAfHnisHzYURCZPr4KfzIZj62AoAW1BaAvApgBs9sOWAMT3PBpqJfAr4IncyWhCiF8Dx0spTyhxTRtQubleklKevsdnf58I4D+BXxwPfL+EQPmoCazRrsmfUkJrWzxHeMVhe3zMIPtiSKCbIu5GKaWn8u50dHR0dHTKQwhxLPB2+rnNAM/NVvFXQkupJAT8cTf8ZnvpfhrM8NRx0GQF0sJMWycFdAaV2Nrkgw0+2DAM3lhFQ40Aa1AB7E1k5+TdDXxFSpnXW47Aek9KeXRFZ9qLCJRZ7pcA3xbKgakLrMqvKQH0pa1dsawA64ohQ6ncXsqmn+LCq28P+tLR0dHR0clDc9FdlH5+YT3cMjFruRIG5X45e4OKw8rFYoCkVAvAJePhx7OzwgpDfj95bQbYEYaNPlg/DBu8sN4LO/bMn7MW+D4qPYQUQlyECq4HFdM1Z3/NKDSRE+d9l4QjBdTuj5Ec5JgETDXDNAvK8wtp9SUGk1nRtS2mHm+NkRxMYBwl1GuctpyS2yiE8KNUfLE4L73Ipo6Ojo7OmGixV3m5pi6tJ6MIpPZnqSdfXC2ogW+1wmwn/GkH/LJbta/yqv3T07xEQT/ptp4QvDoAfWHoC4HJAOdNgl8ep3bbMAzrh+A9D6zsh8HImJdyBCrQvV8IsQ2VKDXNocAzQogv7A/jhAmVNwIAL/B7Cd/YE3uLTkmaTGqZn289M4ZTysqVFl3bYtAZJdEXwxCXmYRrhVSjPkALCtpj2rTVQuHVLqV8f/M9dHR0dHQ+NAghWoG/kU3syVwbzLTkCCRUmoYH+vOP7QhBsxmQ+bFVfRFISTCkhVVK9S4gEzD/1x74/nqIFdiTnuwFo4CLp8JtC2BRS9bq1eGDNwbgzd3Q5YftQegPq3MVkDZKFPJJoFcI0QO8BbypLe/s6xhoAXwceDG38QsCLhLoLsK9fU2jnTvncUrALk1wdcVgWxQ6o8S7ouBPYqYyUqicIMXcjR+64po6Ojo6OqURQhyDmrl3aG77T8bDyU5wJ2FLDJ4ahhWBokKGZguc7oIlAxDS/CYzquAf88kLjs91CW70w0Urxw54/+Js+N5R+f1k4sHScV3ArjDsCMLOMGwPwNpBeLkP3OWbE5LAerKC603UfXGvuRMFKmCsD7DkbrhKwKWG7E66wPrgBFaxftNtwykluNJLR4R4Z4TE7jg2mTfasthFceG1Y9SjdHR0dHQOKoQQVtSkth/AyB/qNgGREjErkyxwQjW8HVD3nWJ8bSp8YfJIYSUEDMTh0reUWzDNrBo4azwg4IGt2aD38XZ4+/zi/eQG3ufGdYWT4LCo5+1eWL4DVuyA5dthR8lUpUXxo4L+30CV/1n5fhKLCyklQoifAt8u3Pg5A1xeSuToAmu/CKxS44lL6I1qVq8IbI2Q2BIh1hPFEk1hojJ8FE+k2qXHeeno6OgcPGgFnK8Bvosq4lwxJgE3tsA5LjAa4Hc74El3NoD7sha4ZXpW9KSEci9uj8FLg7B4uxJBaYwClp8OLXYVRH/mS7BNS/8wzQmvnzNSROU+X7kbbnwd3BEIaxkmnWaY7YI5DfCZ2XDyJHVcXwDe2AFvbFeCa/NgxQnG21BiawVKeG0sN6F4WmBVAaspMBkCXCbg85pqVEdoK11gHVACq1Rb+tdDVwS6orAtAlvCxLZGkJ441go/aFHUrIxicV5jhyLq6Ojo6HwgCCFMwJXALUDr3up3ihVmV8EKHwSSajbhSbUqtcOuGOyIws4oJHJuLrOc8DEXPD8A2zUr1jH1cP0MeLgbXh/I7nvjLPjOEah7XoGwQsCzfXDdaxAb5ad+iwPari4u0LxRJbZWbIflvbB61+h9FcGLys+VtnK9KaX0F9tRpIWYVgfoeWBu4U7nCLjBqNkUdYF10AmsUtcUSinBtS2SsXrJLSHifVFMidJB9sVIAV0UdzcOV9CPjo6Ojs77QAhhBD4L/BjNYmUTJKoExqhE7GFt3j2ixgSLj4FDnErcPNMPXxmlcM28OnhsUdbdVyzlw1nPwnuD2WOaq+D4ZhiKwus5wS1bvwANVaX7SbsboylYtQNW9MHyHljZB77yM9KDuv+tAu4DHskVWyLX0iWEaASeBo4r7GGGgO8aYEI6LksXWAe9wCraJpT5dLtm8doahq4wbA2T6gyT8iUqdjfuBDYyUnjtqrAfHR0dHR0NIUQ92Zlz3cB24BYDfDUFNdWC+KFGzBaBWJ0oHV8F4HA4mDlzJocccggzZ86ktbWV4eFhdu3axcDAAIMD/Xj6d9Pf38/uQQ+RWHlZQg3AF6bAlZOh0aZK0F2yCjYV2HsarXDxZPjaYWA1MiKoPVccnf0svKdFRVmNsP4zUG+H+zfD15dl++y5FmptI/sZ0XdBXJcENg7Cil5Y2Qtv9EBH+Wm/g8CfgG9IKaOi0JWo+WtvAb4D+TfTKuBmIywyjH3j1gVW6fEc6AKr5LkBb1IJLk100RWGjhDJHVEMKZnX81h4KR7ntW1/JYXT0dHR2d8IIQyoWn2tRZbxKEHVRE6gulHV5at3CuTJRsyTDPB6EjYUcX1VOxwsOP54zjvvPI455hhmzpzJhAkTKhpjf38/y5Yt48UXX+T1119n06ZNJBKly+0aBSyog7Ob4Yxx4E+oKXwJVB6s2bUqtqucoPbrlsPS7mzfn5wMh9TB3Rsgod05rEbYdf3o/Ywm4nJdkgADQSW2VvYq4fVm75huxWXAmSMEVhothf6DqHTzeZxrgC+act5dXWB9ZARWqWuKS+iJwNaQJry09dYQqVCyIndjBBVUWCi8tkgpKzPc6ujo6BxgaLP5JlNcQLWi3HoVpeMRwH3jG9los/Fg3y52xZXYMQqB2WRi1iEzuegzl3H11VczceLEvXg1ikgkwquvvsqSJUt46qmn2LGj9ER0o4BTGuHfJ8OiJjAYGBlrNUoW+NvWwR3rRx/PJ1rhr+cUF1YjRFwxYZUrworgjcATG+Ev6+CVLkgWNwl8oqTAAhBCWIBvoaxZttxtMwV81wQTNJWnC6wyrulDLLCKnlv7szuaEVt0hZTVqzOI3B3NJPsthySwleJxXkUDDHV0dHQ+aIQQNRQXTlO0dQv538J7BbvFQq3NRk2VncFAgFMXLeLG//wap512GgZDJb9x3x9SSt566y2efPJJlixZwqZNm0ruO7UKfjgXFjYVF1Z5FiZtvX4YPv08hEoYzGotsPxSmOAcvZ9yzpXeZzR2B+DR9fD7t2FjflLW/xlVYKURQswEfkdOxW0AO/B5I1xgAiPoAmusa/qICqxSbeEUdGvCa2sIuoKa5SuEDCcr+gLaTnHhtbuCPnR0dHRGRQghUC66YsIpvdTtg/PicDikw+GQNptVmkwmDEaDYWDHLuENqERPNTYbl19yCZd94QssXLjwAxVVo7Fu3Truuece7rvvPkKh4onT/20ifHcOuNIxUwViJ0/8CHjHA19dqbK859JSBX88HU5oKS6aCvupZJ+xiCXhW8/Bb1dmmlaWJbDSCCE+A/wKpcAzHCrgZjPMNOTum36QXesCa5Rzj9Hvh1FglRoPaFavEGxNiy5tvSNcUQ6TIUrHeX2Ac2l0dHQOBrQY5MlkRVOueJqiLbaSHewhJpMJl8sl6+vrpcPpwGqxCKPJIASSZCqBJIkoYkrpad9GX7+K+D7xxBNZvnz53h7aXiMUCrF48WJuv/122traRmxvtsEf58PcOoq78grcfSngyR5YvhvcUTWT8PJDRs4cHCuovVzxVe5P/jtWwDeeIykl3RUJLAAhRC3wE+AGcuoYGYCLTHCFCazoAmu08egCq4LxFPQbScK2sBJcWwNZEbY1kC3ZUAZhVJxX4ezGDilledNjdHR0DjoK3HeFImoKKoh8n5h+nE6nbG5uxuWqF85qJzabFZPJgCRJMBggGq08xHTYG2B721a88Tg2mw2fz4fZXGk1tT2jo6ODFStW8MYbb/Dmm2+ye/duotEo0WiU008/nccff7ykFW3FihVcffXVI4RWlRF+fTSckVOLsJyYqbJirfZRPFYhUkLNj4mG43gqFlhphBALgHuAo3PbmwV82QzHGdM7Zte6wBrl3GP0qwus0teUbtsVUW7GrUHoDGjCK6isXsXqaRUhAXQy0uK1WUpZWcEFHR2dDxTNfTee0tanVqB2H56f+vp6mpvHUVdXh7PaidVmxiAgnogTCPhIJisvhFFdXU2Dq5GGhgYaGhpxNTTS4GrA6XDi8/n4wy/u4LX33gPg7bff5thjj93ja4jFYlgslpLbBwcH+fOf/8z999/Pe9o5S/HXv/6VSy+9tOT2VCrF3Xffzbe//W18vqyvzyDgjwvg1OYCoVMgliqNo6qkn9GEVjl86iGCz20htccCC0BLaHYT8COgOnfbaUa4wQz1adWnCyxdYBVp25sCq1QfkZQqw7A1kCO+AmodLD2zuJBeisd5DYx6lI6Ozl5BCGEjO/uumIiaREFN3b2NxWKhsamRxoYGautqqLJXYbYYkVISjUUIh4NUek81GAzU17tocKUFVENGUJnNZvx+P273IG6PG497ELfbjdszSDAYJBKJsmv1RnZo09h+97vfceONN1Z8XYlEgosvvpgbbriBT37ykyO279ixg1tuuYWHH36YeDwOQFVVFSeccAInn3wys2bNorW1lZqaGq6//npWrFjBueeey9KlS8c898DAAFdccQXPPvtspq3RCs8uggZbvsjZoziqEsKqnH5KCbSx+Gc7nP8wifclsNIIISYCvwYuym13CrjWDGebtAFmDkgfl9tJ8TZdYFUwnmLn0gXWqOfuj0BnEDr9mvjyK+G1PVS21ctN8TivHj3OS0enfIQQLopbndLrcZR1e9tzqqrsjBs3jnHjxlFbV8usw+dQXeOkbe0G4okowUCASLTyqmAWi1VZoApEVF1dPSAZGhrC7VHiKSui3MTjo0csSClpW7kGj2YZu+KKK3jggQcqHt/Pf/5zHnnkEdasWZPXnkql+NGPfsRtt91GKBRi4cKFnHvuuSxatIj58+djNptZvXo1L774Im63m/r6er785S9z5ZVXsnTpUgKBAMVixwpJpVLceuut/OQnP8m03X6kSj5arrtvj2KtytynUKCN9SlsH4R5vyVVaVbuokgptwMXCyHOAe4EpgEEJPwqBi8k4GYrtB4Ykxp0dDKMs8E4O3yskTxhFk1q7sYAbNVEV4dPPffH87poABZqSy5BIUSxfF4dUso4OjofITRvxwRKW5+mAM59PY7qmmrGNTXR0tJCY2MjVQ47FrMZYZAkkgl8vmGGhjwkk0mCoSHmnzifKoeD1198gVRq9PzHTqczY3lKu/EaGhqpdlYTjUUzlieP2836dWtxewbxer1j9puLw+HU+m3ApfWfOu9Svvff/00wEuHNN9/co9flmWee4fLLLx/RfsMNN/D73/+eww47jNtuu41PfepTgEo0euedd3L//fezdm1+7Zv169fz0EMP8atf/aoscQXKinfNNdfwwJ2/pG9YFSuUUi1AJp9P5ierzGqcEW1SmwiVIhM39X73waDaMuMZ47KuXQIGQWCvCKw0UspnhBBzgVuBr6ElS1uXguvDcJkZLrdUmEFNJ49VQVjmg6hUrq+IVJYWpxGqDOA0gcOgPTdCtREc2uLUFocJzPv0d+DBj9UIs2tgTjpiI8cKNhCFDr9m7cpZeoN5Vi8HcIy25BIXQpSK8wru04vS0dlHCCGqGN36NBEqLrNVEQaDgZqaahobGxk/fjzjx4+nrr4Wq8WCMAiSyTjeYS8e9yA+v48B93Zlfx4F98AA1dXV1LlceD0e6urqNBGV78qzWCwEAoE8V96W9jbcnkECgfLDN9PuQleuiHIpsWa1WgkEA1r/Sqxt7erknZdW0BKJ0Am0t7czNDREfX19Ra9dX18fJ510Ul7bCy+8wOLFi/ntb3/LDTfcQCqV4oknnuD+++/nmWeeKZm5/aGHHmL37t3827/9G4FAAKezPN186y3fZacvnHneaiczZXyE0NJET15bgUCSZI8vR6CN2KeI+Mrdp5jI8kfhP/+pahoCr+0VF2ExhBCHAXcDJ+e2TzbAV61whHHvunqK9lGp+6pCV9UH7SL8yXZ4fIi9gkUUiC5jVpSl25wmrd2UL86cOW12U84QD0IXIcXa9vBzE0tBVwA6fTnCy6fEmG/suYmSbJxX3uxGKeUYtwEdnX2LEKKJ0a1Pjft6DCaTiZYJLTQ0uKiprmHSpIm0NLdgr7JjNBpIphJ40nFKHjfhcHjsTgswmy2ZYPIGVwPHnnQCU2ZMZWjHACFfCK93KGOFSospt3uQWJm1+QBsVpsmzrTzaEKqtla5C73eIWXtcg/i8bi1c7iJxYrPMty+qZMJbi9vaM+fffbZonFUo3HKKadwxhln8L3vfS/TNjg4SCQSoaWlhXvuuYcf/vCH9PfnZ9KcN28eF198MRdeeCF2ux2Px8OaNWtYs2YNZ5xxBhdeeGFZ57/99tv55je/mXk+yQ4vL9KyvOe65saImfLFYYMXNg6r79xLZsLUmiLuvnKC2ou5CUvEY0kJT7fDV56Gbm/mMv53nwksID2r40rgdpQrRbUDnzTDF61QXYnI+YgLrLPboF9zLtmMBswGgdmgrFHJlCSeksRSkpiE5AcU/WNAia48K1muCDPli7VqU7a92qxt09aG9Ic697o5eARWqT4QMBhRgqvDp5ZObekJlPVeDVA8zqtPj/PSeb9ouZ8mMnr6Avu+HofBYKC62omrwUVzczOTJk5kypQpNDY1YrGYsdgtzF1wFL3bulnyyF/xDHlGrX9XCofDmSei0iLH6awmHo/nufLqxzVyxHFH88q/XmDla8vG7hwQQlBbU5uxcOVaoxxVDiKRsBJNnhwR5XYzPDy2u7CYG9JmtrHltWX87+LFAPzgBz/g1ltvreg1+drXvsbSpUtpb2/Pa3/uuee4+eab2bx5c6Ztzpw5XHbZZVxyySXMnj27ovMU4na7ufHGG/nb3/6W1/6VGfClGUVEVBFhFZNwXyc81AndBcbCGgssPRsOaxi7n4risdLnTsKf18Edy2HjyOlOH9+nJlvty/8+IcRTKJF1JSgr27NxWJmAG61wuu4zLIvcoGu71cKnL72UT55zNuFQiFAoTCgYJBQKEfT78Hk8eIc8+IeH8fn8BIIBQqEQoXCESDRGIpkklUqRSkmkTCFQAZNSSpJSkkxJEik5ZlLPFKpwp7/y77kRVGlCLE+E5TzPtJtz2rTH1WZNxOVY1A4kmmzQZIcTxqnnaVEWl7DVB+0+aPOqZbMXunyQyL74TdqyKLdPIQgKIYoJr04p5V54R3Q+DAgh6lEiKZ1AM72kxdME9lHup4Jx4HBUUV9fT1NTExMmjqd1SiuTJ0+mpraGVCqBZ8ijRIdmwXlz1bLMrDyT2cyEGa1IAf0D/SXPYzAYqK2t04LKG/OsRDarLcfNNojbPUhHxxbcnkH8/pEVt6ZMncqco+ZR73LltZvNZs19lxtv1UB9vQujwciwbzgjnnbt2smGjevweNwlM5nnjr1SN2Rb2xbqVmeL87399tuVvC0AXH755fzyl7/k+eef58wzzwTgwQcf5KqrriKVSjF58mQ+85nPcPnll3PUUUdV3H8xnn76aa655hp2784vuDG1Cq5p1dxyhfFQZNvSPy1vWQ2Lu4qfwxeDb62Ep87R+kmBNOT3U1E8ltbeMQCLN8Af3lGlcoqwWUr58j61YBUihDgZ5TbMKyC9wAQ326ClMM+EbsHKa7t9J/xFcxaZBEyvsXH4wlP52R2/oqrKMbK/vMGnVyPbZEoqYRYMaSIsTDgUIhAIMDQ0hMfjYcjrZXjIy/CQB7/Xi98/TDAQJBQKE46EiUZjRONx4vGEEm5SkkpJtf4gP2NobkwT1JjzrWXVOeKs2pzf5jSr/au1xw7tp8fesmBVapWLp5Tw2qyJrrZhaBuCLn+2Yvwor0HCaGBrIsU68oVXm5Ry9G94nYMKLXXBJEYKqMk5630ePA5KHNjtNmpqqmlobKClpYXJkyczffp0xo9vwWw257i8BjNxRGOJjlyu/cpN1NTWctcvfkW1s2aEFaquzoXBIPB6vXi0WXm5rrxKknk6nU4mTZ7CZdd8nnAoTNf6dlyuBqqrlaXL43FnrE/p/tMB8qNhNluygerauBtcjVrclKjYDen3Baja1MmbWoHnmTNnsmXLlrKvM81ZZ51FNBrl5ZdfBuDRRx/l3Xff5eyzz+bkk08uO2B9LPx+PzfddBMPPvjgiG0WAzx4FBxTn28pKuWmWzYAV69Uk5LS1FjU1+pwzsv13iX5tQmLzkws0pb7fGcAHt0Ef9sE7+4c9RIHgc9KKZ/7QAUWkDZHfx34HjlmZyvweRtcYtXqGoIusAraYin4/FZoz5klPLvKQLJ+HL/9033Mmzd3jwRWXps24BH/SsXaEEUC/UTe+GOxOKFQiEH3IIMDAwwOuvG4PRnR5hsexufz4fP5CPp8BINBQqEgkUiEaDRGLB4nnkiQTKZIVjDb5v1iFEpkFQqxGk2AVZdYnBao1dbVZrAbyb4eFQisYm0CZQ7vHFbCa/OQEl2bvbDNV5arUVqN7AI2RJOsJT/Oy7Mnr5POvkMIYUCVJSslnKagLJt7585XAoNBYLaYsVgs1NfXcdSCY7BarUT8QSZMmEDrlFamtE7Bbq9iSLNA5VqI3B73HrnyqqocI1x5R55wLLUNLvrau9jZtz0rcLTzlCNw0hiNxuIB5Vr+qbS1aO7xRxOPx3jorntLWroKcTgcxWcUVo90Q+aOfSwXoRACp7M6IyhVqoc6HEnBf/33D3D7fBiNRoLBIFartazXIc3Q0BDHHXccDz30ECeccEJFx5ZDKpVi8eLF/MeNNzLs843YfogD/ncOzHIypisvLX7OfxXWajFPl7TCT+dDlQle2Amffy3b96vnwxzXGCKqSJs3Bku2KFG1vK+s1D1/B26UUvYDfOACK40QYhoqpcM5ue2tBviyHY42oQusIm0hCT/dDs9kA+moMUK1o4rrvnIzDCrHNQAAIABJREFU19zwxZzD9r/AKt6W82jEhZZo0/6EQmH8Pj8+vx/34AADg4OaaHMzNDSEd3gY37APn9+H3+9Xgi0YJBIOE4lEiMXixOLxipMB7ikmkRVkNZacx2ao1p7XWLICrcailia7Klxak06bOMb/QiwJW4aV6Nqsia62ISW8ysnnZTIQNQp2xpJsk6p49nagB1gLvCelHPuuolMR2o/NScBU8osFp59PZh9OuhYiLZzyl5qaGpqamhg/fjyTJk1m8uRJNDQ04qhyEItHmTR7OsPDwzz79yczViiv11vx/5QQosCVlxVTNpudYCioxId2Drfbzewj5zL3yCN45okn2bRu/ZjnsNvtyo2Xzj+lrWtra0mlJF6vJz+g3O3GM+TOsxZdds2VTJg4kXvu+A0Bnz8z9rQrz1UgAq1WK8FgeuyDebFW5YiztPBT7sfsa+NyNWA2mfH5ffn9ut2sfPYlLN5h0nardevWMW/evIreD4CtW7ditVqZOHFixceWYmBggDvuuIM7f/tbfEWu32aAL06GqyaBxTi6sMp7LuA76+CRbaqfheNg8SnKi/e51+HVXVr/RlhzMdTZSveT2xZOwDPb4NE2eLFbeRPGwA88DNwlpVyXu2G/CazMAIS4CJWkNO8dPdUMN9hhnHbhauec1UdUYKWfP+GB23ZCNOfNn2g3MfPwI7nzvj/h0szNI8ZykAuskW1FR1U4gBFt4VAYv9+P36/Emt/vwzesRNnw8DCeoSE8bjde7zBe7xDDwz4CAT+BQJBgMEhYE2x7UvqiEixGcFmhUcvX1eKACVUwuRomOWF8lWqrsVD0cxNNwRbN2rXZk113+8tOpArqO6sTeBn4o5Ryz5LtfMTQ3HfFhFP68T6LfRopnCyZxza7LSOgGhsb82/gZjN+v2+Ea83tdhMKqSwi1//nV6hyOPjNz35OMjH6518VMW4YEQ9VX+/CYDAwPDysnSfrzvO43SWTeR5x7NGc+alzeHPZMpa99GqeSEuLp7SgqrJXEQqH8t2SOQHlY937TCYTDa4GzrrgPA45bA7tazZgEibq610IIRgeHhrxOnk87rLckFardYR70+VqpLa2DilTKvFoBZbAzW+t5ZhYnBe0548++igXX3zxmOPYl6xYsYLbb7+dp556qqRl7uP18K2psDsOG4KwMQg9Eag3w2Q7XDwB5tRkRVBhMHp7EM5+JftddlqLmtn+TF/2HJ87BG4/fhTBJiAOvNwLj3XAM11KZJXBOuAu4OFSP0D3u8ACEEJUo8rt3ESOh9Am4LNW+H92LYGKLrDyxtMRhW92w7ac/2enEZzVNdx57x/42IknjhyLLrDy2/K7LNJWcN0ivy0cDuMP+NVEAr8/4+70+XxKuPk08ebz4/MNa4LNi8+nJh+kRV4lyQaLYTcJTpskOWk8XDEbqtJ2jxKf40hCC6j3ZIXXJg/0+BhzYoPFyOZYkr8BrwNvfFTzd2nfW8WEU/px894+p8lkVGLJmi+aDj1sFiedsoi2TRvp3NyGzWbLExzZGKV6pJSaK2+kOEiXQRmNS674LFOmtvLA3X9gsL9fWYkaGkdYoWpqakkkEzlxSlkRVYkrz2KxZALKZ8yaxcIzTiHkD+LvH8ZgEBmR5skVUWWmaaiqqipqhaqpriGeUHFW9lonE6dNZuVry1n5+jK83qGyxl6qhqDD4SAaieTPJNwDS2AmO3xDIylfGGdPH3csUzMdf/SjH3HLLbeU1c/eJBgM8vDDD3PHHXfkzTwsZJIVvjMFTq6Hn3bD4t0ld+Unc+DSiZR05X39Pfh7b/FjBfDKuXBo7UhhlQJW9sPjnfBUF3jLC8/bBDwO/F1KuXqsnQ8IgZVGCHEMKgh+QW77JAN8qQqO09wlusDK9htKwY+3wz8L8mPV28xcetllfPeHP8RoNOoCax8JrJJtOWMTo7apR/6An2GvV7k5NRE25B3S2lT78PAwQ0ND2uNseySS/2v/mCZ4/sJs92N+jnPawkloS1u63Ep0bfJAbwnhJQQpqxFvMsX2eIo+YDewC+gHfEAAZUIPFDz2A8EDOc2EEGIc+fmeclMXTAUqy+Y4BmazKSOerGkRZbVkH1ssGI1Zg5eKxVE32LlHHs6Rx80n4PUR9gSIRqN5gib9uJxUAIUIIaipqc1YoU44dSFTZ85gsG83qWiCUDg0wpWXTuZZ7tubFiPp/FBpceh0OonFYng8HpW0Mxhg0dln0L9rN/f+5s4xhU46ZUJmRl6OiLLZbIRCI8fudg/i92djhGbMOpRP/79LWL3qbV7653OZ9lFrCJrM+AOlawiWS+57nBXKyg0ZjUYzbsgta9bjWvUud/Yp083ZZ5/N5z//eTo7O2lubs4kXh0/fjwtLS1ln78c4vE4L730Eo899hiLFy8e9fpMAq4cB9eNV8mc794Fd20fvf8aE7x9So6oyhFYwgA7I3DqSypGOe9cBrhtPnxmRlaMJSS8tgv+2Qv/7AF3eVWPVpMVVZvKOkLjgBJYQDqw8wYBP5VQk7vtJAvcVAXjC9yGH2WBld621AO37YBAzveN3SiYNHECjzz+OBMmTtB21QVWXlt+l/tNYBV9fUq8Ztl29TcajTJ/7kxOqd7J3etUgH7PVWArFscI5f1/FHyOw3Fo98KWofylYwhCe54QQgIh8kVXrhALoaz3cSBRsC7WVmqbCVUE2JqzFHvuIL+Y8F7L/ZRx01nNjGseR2NzE0ODAwhERjwZDPmfIDVlvz4voDl9s1VB2P6MIEgKyYmnL6KzbQt/uX/k7KyxMJmU66vwPPX1LkxGUybtgNvjpq7JxWFHHc7rL7/Ca8+/WFb/mbiinJQGLlcjLpcrr6Bx2vqUtugUy4L+H9/4T8wWM7/52e2kUinlhqx35c3IU2Ovx2Aw4vNV5obMxWKxMm3GDD5z1efwe/10bWrPBJZLSWbGX6U1BNOUeo/TLtTc93g0N+Tuvl34e3bSX4Z4drlcnHTSSZx77rl8/OMfZ+bMmWWNNZdYLMbzzz/Po48+ypIlSxgeHi65r0nAAgecUQun10GtKSuQbuqE17VDZ1XBPXPAnYSvblauwjRvL1Jxq6XisZ7fDT/eCD2athtng18fBye3KCPEyzvhn33w4o4Rpc6KIYE3UQHrj0spt1b8AqWvfU8P3FdIKVPA74QQfwd+BXwmvW15DN6Ow2U2uNyuspHrKM5zwYJq+O9eeFPzBoeTki092zlt4cn85Oc/4+JLL92/g9TZJ1itVo4+6kimDai5w0kJ6z0wf9zeO0eVGY4apxYgI9ykgO1+FefV4YH2tPgaxeqVg0CJGsfeG+n+wWwxU2W3Ya+yYbNZNcuTskBZLGZyp7j/+7VX0zJ+PH+5/0EGdu0u4cpTeZdyg7C3dXfxzrur8HjcI6bsW6wWjjnxOJy11SXHmAn41qwg6fPV1tSSTCWVlUgTIu1b2vGsXFE0mWfr9GlMn30Izur8c2XcbQW18tL9Z9ySHjednR289dZKPEOestySuWOvqnIwrrmZm266GavFSjKZzHNDtrVvrsgNWaqGoNPpJBaN4R4axGazk3AkWLduTcWWwIyLs+A9rq6uQaYkQ+n32DPIlo52Vr45WLYbUkrJ8LAffyjCwCjGEiPgAoYAj8fD0qVLWbp0KQA2q5Wpra0cu2ABZ555Jueccw4ul0t5PoBdu3bx2muvsWzZMtasXk1nxxZ2DwySGGN8Jzjg8no4ukqr+JEWRlp+K0l+AHmrDRrN0GSFMxvgj5plq9YEVqEdUyI/1ZnN8PFmWDYIM2vULO4Xd8FVy+C13flpHEqQRIU8/B14Qquv/L454ARWGinlLuAyIcSfDHBXCmaAqsF3fxiei8JNDjipspmoH2pazHD3DPjrINyxQ9UqBAhEYnz9q19nyaOP8aeHH654+q7Ogc8xJ55K7Ml/IUghgTWDe1dglUIAk6phUg18fEpOI8rduHVIuRy3DEG7RwmvDk9ZpYMOOIQQWK0W7FU2qqps2O127FU27HYbJpOx5HGFN/DWia00TxrPddf/B0P9g3niYP2Gdbjd6gZbiSsvFo3h9/txuRqZecgs6mpr8yxRVfYqwpFwniWkp3sbbvcgw77hslx56QSetdU11NbVcfSx83HZa1WdPM3dlnst27q7cLvd+MroXwhBTXVNgRVKjd1us2fH7nYzNOjGarfx6rJXWLt69Zh9j528M8dK5B6kvX0zbrebYDBrPfu883oamxrp7e0pGsReXKSp2ZDRaDTvdenp7RnhhiyHSDiKd9iH3xeUwUAoFo3FRDKRNDPCNj+SJMpffyowV3u+XsByCZFolM3t7Wxub+fPf/7ziGM1bTMq19cqc/NDOYastWG4rkHFUhfWFEwn9TzEDis1g8ALQ7B4l0pz80ROHtnzm1W1EikZtV7gQAy2BeGeDnjLXVbamjjwIkpUPSmlHJmL/X1ywAqsNFLK57W6hl83wK0pZc5nZwq+64fjo/BlB0wq/f32kUIAn2mEE2vglm5Yq5lM4ynJy8ve4NjDj+TPj/6VI488cr+OU2fvcvT8BTz811pctiHcEVg7uL9HpH61zmtSS6HrsT8IvX5l/erLXfvUeqe/rOnR+wyTyYjD6aDaWUWVs4oquw2b3Ua9q55pM2cw7B2mq6MDGOUGnlugN2cm2IYNa0kYkix/5TWWv/RKRePKc7UVTOGfMLMVk9XMSQsX0tvdw67dO9m4cX1FyTwzgdM5cVDp4HjIzpyTEjDCy6+8iHtwsCx322hjNxqN+HzZ9AM7d+1gw4a1RYPV5/uP55SGeiw2a0ZcjZ68k7z6ft3d23j33beLWgJL4fW4GT9hPEcdcywiRbYMTn09RpMpJ8P6ILt372LjxvVluyFzSaVSBAIhfMN+AoGQDIXC8XgsLpLJlObwB21d6lfyDuCrKNf4ucBC4BCAKPCCtswBzgI+a4BlwNMSBkoIknKCiM53wI0F8iSUgpv64M5JcHiVNvC0QNL+XNuswlu8CTUT8Cfb8vswABc1M0KgpfvZGoR/DcBzu2DdcFljDQPPoUTVP6SU3jH2f18ccDFYoyGEmCLg1xI+ndtuBv5fFXyuSqnlj2IMVrG2lIT7++GunaokSxqz0cD111/Hd269RdtVj8Eq3Xbgx2ABeIe9nLVgNiHvIBs9cEQjvPxvOfu+zxiswj5GtI32mR2lX1CzeXYFlMja7oden6Bj2EC7W9Drk3jDKnv9sQsXEolElXjY2U8ymSxqvRBCYDAIhBAIYcg+NggMQmA0GjGZTBhNRkyZxYTJZMRoMmG3W7HbbXl9pm/gRxx9FIvOOgOfZwh330Am+3axKfulCvTOPeoIzjr/PDZv3MjTjz0xYnumGHBBTFE6d1OpZJ6LzjydoxfM5+m/P8HmDRtH9Jt+baqra/ISa6YDyx0Oh3KJebQkmDlJPAstamk35x9+cyc+b9ZsUWrsNTW1pFLJnPQD2bilcmsKppN3HnbE4Sz6xOl43UP4+4eodlYTi8eKzlasxBJYSqTV1NRQ39yA01XLhnfWsmn9uj2aDZlGSkk0EsMfCOL3BQgFwzIcjiYTiYRBSmkYu4cM/UA70Kat3wCWa2E2GbTJGiehxNangEPR/vtMwHwBC7WzPpiC/j2QBDfVwjgjbEnAkgD4c0ZwlB3+MEWdsVjuqUc98NMiswCdRvjfWbDIRV7s1caAElXPD0BHefMF/MDTqED1Zz7IWc8HvAUrFyllD3ChEOIsAb+TMB2Une/hEPwrAv/hhNNso/fzUcEg4JoWWFgLt2yDdu2HYDyZ4nf/dzf/+uc/eeKZp7WcWToHM3V1dQSTJlqqYKM28y+WUnm09idhq4t+xyF4LE10vfUaXbv9dHoNdPsEOwLgj4Kzro5zLvo0TXNbeGvZG2zo7lCB33UWGpvNtJjU19Tl13wWV0MD23t7+ct9KpA7Hk9oQiorqkZDCIGzuhp/kUzSY2Xf9njchGNRZCpFKBJhyZN/Lyv7diFezxBGk4kprVM59tgFee6wYsWA+3pXlzWF3zOo6mg1tTTj6R/Mc1W5NIuUyWjKJKr0eNz0D+xm8+aNFc1uq66uQSYlNbW1nPOp8xFJmeeGzM071dvTU7YbcrQagrnJO0OREPF4DK/PyyMP308gUH4O3FLvsd1u12YrZkXamjW9mdmQs+fN5ZwLL6CtYzMrVpRX9DkWjREORwkEggQCIcKhiIxGY6lkMln4XykofS8OAFtQAipXTLVLKUtHluegZRV/Qlu+pqUX+XcDfDkBs1dKxMqkNstD+/c5wgCnpSfJCDVxxi5UUlC7Qd1b/i+oBBXA3wLw0Dg43QFnOeCLu7Mia3NEc+9B0VqAF7ugOwqP9CsLlMMIRzjhv6bCTIcyFKz2wvNueMENO8ozCnqAp1Ci6l9SyvJrJO1FDiqBlUZK+azmNvyGgO9KsAH0p+D7PngqAjc7oVUvIg3ALDs8MltZsu7brT6wEmjv6ubYI4/m13f+lvPPP29/D1PnfTJ71qHE2lX64nhK5bc6omnfnEsaDARrptMv6ujb0kbvoJ+eYQNbfYJevxJPkQQcs/BwLr/2GgwGA39+0UfHjh6VhqDeQn2LmUajEZvdxqKzVUEHrz/E4FBxq73X48HV0EBdQ7bwrtlc/leYEIIv/dc3qKmt48Wnnqautj47Zd9qG5E5vLOzY0SsjMlsZtIhUxEGcLtL+2GNRmPR2WEuVwO2KjstEyYSqnfRXrue/oHdbNq8IS+Z51g4HI787OSuBiZPm8q0aTNorG9k5uQZGctW+5b2TN28cixFmfQDRcZuMpnw+3xYa6owmUzEEnFWLV9RthsyUyS5SFB/YfLOnt5uVr/3zghLoMFgYNq8WZit5hHiqlSG9fTYMxnWPW4GBvpp27yxrJxZQ5p4bWhqyGtPJBKEw1Ei4QiBQIhgIEQkEpXxeAIpZaHaF+TkecztBthKVkRlhJSUcseYL2qFaEkx7wbuFkJMAR4BToqhSnEBrE3BISm4zqrEVWHuKSHg9lr4rAcCEvqT8B0P3NYI00ww2wKrNCHkMpFXrLkwjkoA35gA17fAQAJm2CFlgDd98OBOeHkIPGPPgwCVImYJyv338oFQ8P6gFFgAmiL9sRDiYeAO4IL0tndicJUHLqqCq5xQNfqP2o8EZgFfngin1sF3t2WnwEZicW64/gaeePRR/vTgA2NaAHT2H4FAAJPJhNVmLfo+HX3CybzRli3AtWZwzwWWNwrbA7AjADuCsM1noMsv6PMLdgfBYLHzo7u/h9EgeHjFPbRv6UKYrWrm3DgLzZPMqvhvbT02h6o1PHXWLHz+kQIiEo4QCYex2e3UN5S2pg55VLI3R5UjkweokHT27dzEjul0AwaDwNU8DqPFRGNjI9u2drFmzeqKYmUS8Tg+3zC1tbXUu1zYrLayknlu7epk1dtvZpJ5funb38BitrBi5TLCoZE397zp+5mSKfnWnFxrS1dXJ8uWv8bl117FQP9uHrz/3lGvIzdJZe7Ya2vrSKVSeTFLnVu38NaqlXkC7dA5sznvkovwBYfp7evJ67tYDcGGhgaqndnknelxb9y0IePKq6SGYDQUpnl8C6ef/gmcDmfGhapm1XkzQrmrq5O3336LoTLdkMVIpVJ0b+vhgXv+RE9XNz3dvYRDqlZqCetlqS/R7eSLqPSydX+JAc0rtFAIcQHwAFCb3vb3BGxLwQ/tWsBXQfxTnYAvOOAObS7AO1H40gBcWQMbckLbGowgc4LRC+Oo0vFYJmBrGO7dpVI3BMr7OHSiRNUTqKTH+zFycyQHrcBKI6XcBnxaCPEpVMmdGaB+Evw1BC9E4MZq+MRey2hzcHOkAx47DH7VB3/RTLIpKXn2+ReZN/swHlvyOHMOO2x/D/MjRyAQYHtfH729ffT1qaWnp4e+vj56e3vp6+vLsxBYLBZOOOEEfvCDH3DyyScDcMxxJ/DCg3ZUHGfxQHcJDIY14RQCt208psNOI2Jz8fDd97LbnyCeArPZyPhJE7ny5q9QV1/P67fdQcQSxDLBwkQt7YDJYsVisTDp0Fl4g8UFyvBQNgNu3SiuaI/Hw4SJE6lzuUru43WretQGo4E5h81FpmR+9u2aGhKJhIrt0eJwNmsWinSszDkXXsCcw+fR1tFO+8axcwYWS/Q4Y9oMaupq+eIXb6KvpycjRNaue6/sKfzDQ0M0t4zn0NlzSMUSedYoFVAuMyLH43HT072N1atHWnMKicai1Dc0IIQo6Q5TsVbRvFixNWtXl11CRghBPBanqqqKufMOx5wwZF4fa5HknZ1bOyueNVcqw3pVVRXxeJxaVwM2ux2z1cK69WvKnq1YCiklkUiUSDhKOBwhHI4QCoYJh6MZYfbOqrXldDVMjhsvdzmQKx5IKZ8UQhwpYJVUBcQBeCcFP4jAj2xgklkxBEpFXmCDF6OwTrMwbYzBN3O+d4zAjfWaqMoRVul+PAl4LQCv+FV6oVh5b99qlKBaUlj770DjoBdYaaSUTwshXgS+BfwXmtvQnYIfDcNTYfhqDczQ3YbYDPDtKXC2C37QDZ3aD2jPsI8zT/8EX7n5K3zzW9/Yv4P8EJNIJHhv9WqWL1/OsmXLWblyJQMDlc0QjsVivPbaa9x7770ZgXX00UezK2omLbCe74VvrjDS7RfsCCqrVFIKrBZVbsVgsTJl9qFc87ELlMXksDVYc0RcVVUVLZMmA9DaOpkdfX15YwgE/LhcDSPyIeUSDASIxWNYzBbqXaUFltczxISJE6lvcJXMvj15WiuTp08jmUxy0qJFdGxqy1gp3G43/jIyh3s8SqSl3YyVJPMcdKscS75YkDmHz+Vf/3yadavfK3mudAb0bC2+rIhqnT0Da5WNRaecSsfmdjxuN2vXvYfH48brLS/HUrHZi82NzdS56vn2t7/HkCdrQRscHKCtbVPZbsixagj6fH6c1dUYDAb6tvexZu17FVkCS73H6XqIoWAwKwAH06kTBjOuvONPPonZc+eyqW0j3VvLzwMZjcbyRFQkHCUUChOLVVQAPoqynOTFRKFEVP9oBx7ISCm7hRCzDcpDmKkN/FYS/jcK37RphTNz4qiEhO9Vw1VDECzy8t1YD0dZyct91RuFV4PwSgDWh9UklzFI56haghJV3e/3Wj8oPjQCC0BKGQF+IIR4EPgNapoqAGticPUgXOiALzihep+UWD24OMoJj86F+3bC77XC0clUil/+8lc884+lLFn6FHV1dft7mB8aenp6uOOOX/Pggw8WzVC9J6xatSrzuKWlhcFI9oO9PShYkZyGpd6Cs8VMnWnkv7vVZsFiVr866lz1hHMEVjgcJplMYDSacNQ4Rxwb8AWUwKopLbBAWWuaxjVTm2PBKsy+PX3qdCZOmozFbOZb37oFj2a5cbsH2bG9j3Xr1hB/Kc7nrvsCAO+8u4qVry8v6zXKTfTYOmkKzc0tnH32p1h03CKg/GSeaZomtDDn8LnUN6gs5C4tXinXClVfX5+XAd3jcbNr1y42btyA2zPI/JNOYMHHPsaqd1ex8tXXS4691My2QiuX2z3Itm1dVK2pZuqM6fz90cV0bekc9XWppIbg5rZNI2bNXX3TDdS7XGzpaCMSHims0iKtUKilv1OUKy+dOqErkzqhHFfem68v580S7388niASjqjYqIhaKzEVIVV+hfMU0EuR4HKg+0BzRe0tpJQeIcRMA3SnIJNJ7/kE1EXhei05RG4c1TgBt9TAA0FoSygRNd4IV9TABU4V87s5Cq+H4dUQdJWXGSMMPI+yVC2VUrr36oV+QHyoBFYaKWUXcJ4Q4jyU23AaqP+YvwfhxTDcUA3nOEo7yz8qmARcNwHOaoAfblOBhQCb2zs4ct6R3Pl/d3KeHgD/vrn11u/zi1/8Ii/OxGgwYDEZqLEacFlTuEwJXFYwGwWDUcFgRDAUVcJXCAMWixGD0UQkZcGtWWK2bNnC0NBQxjo0bfp0PO+8C0AqJXFWO0YNBA/4s0HCTme+iJJSEggEqK2to7qIlSp9rNNZXGCls29bzXZcDQ00NY3j+uv+g1rtBp5JN+B2097WRk1DHbF4jMV/fpAdvSPnbQshMoIvN9A9PfbcYOy0xcXprM6bHeb1DOEP+Onr6+GBu39flqXI6XTmiacZh8xkypRWWhqbOXbesXg8HuWS9LjZ3LYpE1A+WkxROp6s3uUq6crL1uHLpktYv37tqG5Ih6uG1mnTcDU2sa1ja14NwUzRYVcDdrs9JzGoFq+0bWvZlkAA98AgDU2NzJk7j1QsmSfSqhwO4vF43nu8YeO6st2QY5FKpfIsUelA83A4QiJRUdqEQYoElwMd2g/2jxxSyogQYp6ALplTZeHRONQLuNTCiHisj5nhxHoYlmAwgMMAqxNw+5ASVoPlvSVDwD9QlqpnpZTlJW87gPlQCqw0UsqlQojngW+jXIdWAG8KfjYMT4bha7Uwy7Jfh3lAMMUG986GJ93wi24YSkA0Hufaa6/nrMce59777sVcxAKiMzovv/wy1135Ofp2Z3+A1VgETXZBTBqIpcBogKjBRr/JQr/BCiYbFocZm9VCq0UFi+eycX3WMiGlZNWqVXzik58A4ORFi3j33Wx260gkOqrAisfixGJRLBYrjiKWqIDPT21tXVErVdDvx2QyMWHSJBbMPz5rqdCm7IfC6gZuMRpJJhKE42Ge+scSdu3cMeIG2zJ+PEfMPxqA+ob6EQIr7Q6TKahrUFnEm5ylk3lu6WjH7XaPmGVmsVqZt+BobFX2jEDJzPjLnZWnCTWV6TuQESIej5s3VqygbkIju3fu4oG7fl/ytU1TbGZb6/RptE6dxviWCUxrmZKXQ2vLlrYRmcRLUVhD8NBZs5k4aRIXXXwJHz/pNIaHh7OWwB3bWbd+LW734IgC4aONvZhIq6930dI6kWpXLR87cSFt6zfkve7lzoYci8K4qLSQikYrKgUQBjqEZeVKAAAgAElEQVTIF1DpWXqevTLQDxlSygEhxHEC1sgcnfCHGEw1wPHmgnisFAQFvBOHZTFYGS3uMixCH/AkylL16oEw829v8qG/Y2q/Qr6f4zY8J71tYwyuHYBzHXB9DdTp2eC5oBFOqYPbu+EpLVjx2eee4/DD5vHY448xb968/TvAgwxXvQv3cP6NsnpcM3Xjm0bUqCuXwlJHb731VkZgnXTiSdx5550k4up7KhqJUl09eqm/gD+Aq8GKwznSDRgMBLBYLEyfPoPkifG8G2xdUwM1TXXU1oTYXF3Nrl07NSvFYN609yPmH8OZ55wNgMEkilovPB4PwiAwmy3MnXcEruqsaMhN5llls2MwGJBIXnjxuTGDvtPY7fZMOgOn00lzSwtfvP5LVFc7SaVk1k3ocbNt29ZR3YTCIDj9/LOpc6l4MSllvqswxwpVV1eHEIb89AM93bR3tONsqiUYCHLXXb8dc+yFNQRdrgZqa2tJJpN5VqL169fSMm0S27Z2sfhP94/5uoASmPluPK2GYG0dQgitWHI6dUIPq997F4/HzaFzD+Os889l/aZ1vPZSeUWfixGPJzIuvFx3XiQS3ROX3mZGWqN65MGUUfsAQUq5UfMCPQOZ0n/cHoU/GKHeoAozr0jAsgS8F1c5KctgE1qQOvD2h/m9+dALrDRSyk7gU9p01F8DraD+K58KwithVU/pfIcWyPcRJJqC54dUDcNvtcJZjfD9ThiIw5B3mDPP+AQ/v+02rrjis/t7qAcNh809jMJ7hNFkxGrdc7Opw1mlMr5ovPXWW5nHRx11FCajMSOwIpGxf+lHIxGsNhuHHjILS8qYnc1WW0dtcwNVtQ6ENNCxvk0rRvsGHo+b6YfM5LxLLkJKeOXVl0q629Kz/0BZqozSWDSZ54QJk0nJFPHWGL2dXSpeqWAK/6mfOJNjTzgOALcnK66EECpJZU5Kg1x3WDicTYA57BkmlUrx8msv0L75/7N33vFtlXfb/95H05aHhu3YiTPsxE5CFgmrhJ2yuuiCli5mWd2Ltk9pad9CQ1kFSlv6tKWFQtuHVSizzARICCF7J45XvBIPyVNbOvf7x5GOJFt2nMQOSTjfzyfEOpLucx8pybn4jeu3c9TpqvTONkeuA6fTyTe+8V1sVhuxaBRfd3b7gWyfixCCaDRGbm4udrsdm9WWfQ5f+t4TImrPCDP+hCI4/bxzhthd2O2D7SS0zyYvL49YLJZhKaHtff/dkO1tbWxev4HWpiw23INQVTUjjXcIKb1uNBG1i8y6qA9sSm88SXhO3oDmmwVAt4SbgprZ6M74qMbTSOA9Up1/u8Zrv0caHxiBlSTRjvoK8BPgRhJpwz5Vyxc/64cbnTD7AzQPuSYAv2uDlb2a+zfAbY3wy+nwzAL4ZQO87NVqen544428t+odfvfAH97PLevE43F2766lubmZaCRCNBYlFo0Ri8dwOPJwuVy4XC7cLhcTSifoE+IPFxaLBavVmuHZlBQ/B4uiSAoLC+nt1Yyct27dqj9XWVlJemVhOBTOGI8yuBbHkeugcIIbW14OsVCEbes30dS8R7/BLvrQKZx93ofp8XWzYuVbGfvoT9RgCQGOvDz6+/qypsPKJk5k6rQKTIqC4xOfZvfW7VnNPC+98jImTZ5MR1c7q1YNLWC2WKwgtZooi8XKJZdcis1iw+VyoSjKkHTY1q3ZZ9mpVsG84xegmE0ZAmW4zjaPpwir1UYwGNDTkL4uLwh4bdkr7Ej7/Icj2xy+0pIJ5BXk84Mf/A9dHR1619xwkcCRSP+OzSYLJZMncNllV1KQX4jVatXc4dPSkHX1taNOQw5HV0cnrz7/ov5YVRNWByGtOy8UDBNM/HyAKb0w0ABsZWiXnpHSO8xIKf83YUj6k+SxXfsvXYwCy9CiVP8ZD8PUo4EPnMACkFIGgZ+lpQ0vTD63KwLXdsBFeXBDIeQf42nDZT3wg9rMWYVCCCJS8uNaLZJ1dzVMa4L/bdW6Rp546mk2rlvHcy+/jHuE1vvxQFVV1q1dx8uvvMLyZcvYtn171g6mbOTn53P22Wdz3fXXceaZZ4zzTlNMmTKFbdu26Y+jhyiwzBYzubm5usBqaWkhEolgs2pRsTlzjmNdotC9uHgCN/7gf+jv79NvsO0d7XqUIhDwc+Z5H+akUz9EZ0cH7615N+Nc/sRImdy0LsKkmeekskm4XG4sVguXX341NosNRRH09PToPlQtzU1s3rwR1yTNWmfHlq28+PR/sl5Xt9fHlIppTCyfxKJFJ+opvWSxejQaJRyPkJObSzQSob2rg41r1x7QPDiz2Ywai+HIy+PkU0+lalpVIuXpSqTyenSR1tLSzKZNG7KmIaMmlRNOORlb2szCkWcIqhlRotq6GgpK3ZRNmsizT/+bmmFmB6aji7S0In63uwiX04VQhP4dhwMhQo4Qm7ZuZPuWbUSjByRuRkRVJeFQSjgdgohS0eKwu4BNZNZGtR7LaaOjESnlTUKIcuCyEV7WiTZL+nnghdGO8jmW+UAKrCRSyt3AR4QQn0Zzg58C2t/8ZwZgeQC+4dK6DY9Vbm7QxJXdbufqa67BZrPh7fKyauUKanbv5p5mONUJ35oCxVZY2qB9Prsbmzj1hEU8+PdHOP2M08d9nzt27OBPf/ozzz33PF7vwXXs9vf389xzzxGJRA6rwFq0aGGGwDrYCJbNZsPjKWJm1WzWr9/C3r17AU10Njc1U1U1AxBMnz5DF1i1tbXccefSEdcNJCwj8vJTIiqZDps4sRy3x4PVYuXrX/82jlyHbubZ3e1FSol/YIDVa1axfs2aYYVOj68bp9uFq8hDUVFx1oJyz8QS8t2FRKMRysrK2NvWxu6aXXh9qWL1Amch13zrGwAMBPrp6hrqH5atZimZhozFYsSFJDc3l1yHg1U739KNSEfTUahFiYoocnkoKiri/As+wuknn05ubi7hUCjDvLO5ef2IXXMTpkyidGIZzrT/SdFF2iARlZ+fTzwWw9fdrQ1i9nrZuXMHXp93SBry9CXncMrpi5FwUOIqJaLCCZf91M8HKKJAG7TbiBaN2kCqRqpeSjnKkh2DI4Svojm9nwU40SKNK9DsFF4BNhrCOJMPtMBKIqV8WgjxMvBT4Ptocy/pUeFWLzw3ADe6Yfox1m04EIfexL3+y5ddxvz5C9i7dy9+v59Zc+bQUF9PJB7nxS749hT4Qim4rfDDGohJ6B4I8s0rvsznL7uCG3/6szFPv3V1dfHII4/yj3/8g/q6oWaCQggsFjM5OXZycuxYbRZ98G86gUAQn7dX99dZvXo1UsrDNhZo8eLFPPLIo/rj6Ag+P/n5+ZlpvIRAyHPkEQqH9BTVhg2Zaam6+jpmzJgOwKRJukcg4XAk67Wmp8PKJ06mqLgYi8XKt7/1fX0un8/nJRDyJ+atBXj+pedoamjIEAsTq6fhcDiIqTFdXCX9ldJnzlVMrcBZ5GbKlKnYYia9oLy+vlYfIVNRNYNPXPwZADZt3UTLnswRLAD9vX3E1Dh2q43pM6qIBSIZn5fNZtdSeT4vvsRn1VBfh9fXpac0i0pKuPz6a+j391OzO7McZKQZghazhf4BLUqkSkk4EqHD28HjDz96QF1zye+4yK2JtCVLzuWkeSdis9kIhUJ6Gs/n7aKhoR6vr+uAfNN8XVp3iqvIM+LrwuFIhuFmMBAiGAoRHkXd3iCiwD60ocQbgLVoImp3Yu6dwTFAQhB/CkAIYQOEUfc2MobASpDw3PiJEOIh4HfAecnnNoXh8r1waQFc7dSmih8LtCX+HRXA+RdcyMBAPxarBavFitVixVFQQE93N81p2ZELPKBWaSJLBdr6Qrzz2EM8fdxcLr7k4jHd35JzltDS0qo/NlvMFBW5cHucOBw5WCyjt+Vvy22nsUFzIu/p6aGmpoZZM2eN6X6H46yzzsp4rKoq1VUzU7U+iZu4xWKhv78/YxitFqXowu/PvIHv2dOY8bg+zc168eLF3HPPPYBm41A+aQrTKqalHL/dbkyKiZ5EOiwuVMKhEP39/fzzsUfobE+ZUZvNZqbPmw1of06klCiKQmFhIR53EY5cB8XFxZx3/oWcccqZ2BOjUpLeTT6fVpQdlGFmzZ0DwKP//DuRLHMEu32p8hpPUREhf3CI0HG53Ewun4piUrCZbbTW7aGtrSUxLqUr63zCwQT8Aaw2G1OnTeOsM89Jm8OnzRBMNx4dPEMwSYGzkKkzp6OYTUPE1XDDkp1OrVasv78fr68LGZeEQiE6utp59C9/G1U35Ghoamzk2SefonPvPmKx+JAOvaSgGk3ELg0pBH1SsgetC2w1CSElpWwf+a0GxxqJWcAG+8EQWIOQUtYA5wshLgZ+A0wGzav/H33wih/5XQ/inNz3c5djQ08ikGIyKbjdbiLhMFaLFYvVgsVqwe1209PdTeOgOtuPFEFvHG6p09pD1ntDzF+/fswFVnd3j/6z01lA9awKzAfpxZU/yIn83XffHVeBJYRAKAoCQWVlJYqi6Dc0qUqOmzMXr9dLY0M969auwevzHlA6x+HIzfh8GuobElEqwdlnn53x2oICJ0io2b0T77tDTTBdHjeVx1UDYE6I1uQw4GSnmcPh4OJLLkVGVYTQLBN8Pi/xaIxgKMSe5ib+89jjw/oruUqKdIHlcrto37tvSM1ScXEJkydPwWw2c/HnLqV22y69lqumZqeeyvv4xZ9hxsxqAoEAy998I+v5ss0QTM7hC4fDFOTlIxQFCQc0QzBJOBjGbDZTPnkyZ5+1RE915ucXJKwTUqm89L2nr+90u5g2awYWm/WQxJWUcpBX1B5WrVhLKBg64Ho/IUQE6EqUT2wCVqIJqUZVPTbdyw0MxgtDYA2DlPJJIcRLwM+A7wEWgM444icd8KEc+IEHyo/i2YauxLefY7djtVqxWBPiKhHBKimZQH1dHQ1BuKnBRFtE0BGBYBxQBM4c6AlGiajw1op3xnx/6dGICaVFBy2uAByOzGnfq999jysuv+Kg10uKGU1IaU7rAkEyEyel1MZvJdJz+fn5elF6MBji6aefHFWKcug8O02MmExWvnbD1/V0XX1DvX5et9udIeiWL3+DCaXFQ9bVREgRJSXFFBUVYbFYueyyq5DROJFwRKsn8nUR8PtRpWTj5vW88fIrGSLh3I9/hAWLFhFX41nFVbJmqXRCqX6OK6+6llgoQigUGmQ/0MiEysnYbFZqd+3iP489mfUz6fb5QEBhYSFz5s4jPy8zrTo4EpicIZjeNXfJV77IlIoK6vfUZU1FwvAizWazEQ6HycvNw2w1I4Vk/fq1GWnI0dDb00NcVXE48jFbLMSiI5ckRSJRPY0XDIR0UZVMAx8AqhAiALRJKbcBa4DlwAZVVY2Uj4HBGGEIrBFITD//cVra8MPJ594NwhdakZc7EZcXguUoTBt6EuJQmMwJYZVIDyaEVmFhASaTiZzCPHYXT8BmtVJqSzmLSynZvHEHfn+QvXvHtgu3u7s7YybZYDfzA0VRlAzRsW7duv2+R6vnUlASdV2p+i4BSE1ESYmUoKpJQ5iMdkztN7S6qKTAAq2T0GrVvoDhjB5dLjdmk1kzehzUwr9rZw35+fn0Jbr86urqEjdZ7Zx5eXn6c7m5+Zy2+IyMgnKzyUxff58ucPwBP1Id4M0Vy3j3rRUZn4PN6aByxnSkwpAIT2DAj8VqoXzyZE499bSMVJ7JZKY/cY5wJEQ4HKZ/YIAV77zFimXLs37mne17KZ8yFafbjdVqzRA3yXTq5IqpeCaVEI1GOX7RCTQ1NGrmoOtGHwns9nUzpbKCyVOnkWPNGZKGNJlM9Pf36xE07XPfmpGGvOhzF1M1aybNbS007mnY7zkHI1VJf18vTqcLp8tJV0cn8Xg80y8qENILzOPxA03piTiCPiQNUsoNwCrgVSnl/o2rDAwMDhlDYI0CKeVO4FwhxOfQ0oaTAKIS8ZdueKmf+I3FmD6UM+IyRxxOs3Y7jkQiGcLKYrVgUkysXv0uhc58Zs2envX9QgimVZSzbetu+vvHZnhxkqQ4SKIoh65gLRaLfnOsr69HVVVMJjOKkoxECRShQCISlRRPUqqoqpqISmkiJmM3gqHHBnHccbPZvj3Vin/O2ecyZ84cnIVO4mo8o4U/3cxzuMG3EhWrNdV10djQmCb+YO7cubzzzjvJF4OA3bU1rH7Pm3XdKbOn4/Z4MGWJEoYCQWw2G9OnVxE7M6yn9AoKCsl15uMq8RAKhlCEQm1d6hzpaUizxULV8XMRAnLzUm25GTMEPUVMm1zJxCnlVFRU4rIW6H5ZPq+XrVs24/V1UeB08tkvfwGAtevXsGvrtiF7TpI+6Dm9M6+8YhqeicVYzjazbb2WIqxNfD6jtX3oThiouj1uhrZgDI+Uml9UMBjimceeIRQMsXnDJnzebqKRA2usE0KoQFQI4QW5S1Xle8BbwFuqqo7tX0oDA4MDwhBYB4CU8nEhxIvAzcB3SKQNW2OYvrMXljjge0VQfJR8qgpgNimEQiF93IfVYsVitvDkE4/T29PL3PkzR1yj0FmAxWImGo2xZ88epk6dNiZ7czgya6bEQUawHI48PSIUGIixceMmQEs/tre3M3XqVKSUqFKixuPEZVyLBOlqKZuYyk4qbZiKfiG0FRYtOoEnn3xKf+3GTRvYtn3zfgffJmfwedxFaQOH3bjdHh78y0O8+uqrgCZIu7q68HiKAPB4Uh1k9Q0NrFz59oifUzQSxp6Tw6xZs8lRbLoYyc3NJc9dSL6nECFhQyBAc8t63Ul86vRKPvvFSwFYu+69IUXm6fu322wUFBZy2hlnclzFbKw2bc5fetfcls0bkRaIx+I8+NCf6e8daqUTTRM/bo874ztOF1F2e07asOSEdUJi78WlJXzq0s9Ru2sXzz2f3ZdrfySL8gcPnk6S7NIL6eNfhqb0dm6vy/redBIiSgUiiiL2SckWVVVXAsuklFuNTi4DgyOTo0QKHDlIKQeAH6alDc9JPveGH94JoF7rRrm0EExHQdrQpAiicehPzJyzWC388x+P4vV6yc3N2e8cO9BEVlenjxUrVo6ZwMrLG535mNbR5swwdkymwew2uzYEOHHz9hRlmqJu27adsrKyDNE0chwqM22YqsFKFl6RuHHKhGjTxJoApk2blrFO0549+n5sNltGlCWZCnM6nQD09HQnrsFLU/MeNmxch8/nZe17mzPWrKur1wXW/Pnzee655wDNzT1d6GR0L7q1qFVhiYucAgfBgQCdHR3s3LlddxKfd8JCzv/YR/H7/axZuzrjnAN9/foMwYWLTsBitg6ZIajtv4tIKETQaqGnu5sH/nh/1sLuGcEBZi+YB2jF8P29vVm/47KyiVitVoo+WcS86nm6iOroaGdHYu8jDTQ2WTRLEac7uzgaDd1eL709vXT7eulo70qboxdOzNEbfUpPCCGFIuJIqYIICSGapVTXqKpcLqVch9atN3aOoQYGBuOOIbAOEinldmCJEOJS4G5gIkBIovzWCy/0I39UglhgH3GZ9x2HSSEUjdPX24PHU4TZbGF3TQ0AniLnqNbIzdUuctWqVXzpS18ak33Z7ZkfXH5+Accdd1xGhMLpdA9xDm9u3sPGTeuztuwPnstXW1vLued+mMEIoSTShZqYStVeSb14HSkTqUOJjGdJG2oL6T9qJqApFixYxKc+9clMg8qEiNqyZRM+n5eenpG72uw5ORmp2YaGek4+WZvTV1FRoR+PxeJcc/UNRGMRPQ3Z0FDH2rXv6enCpJt7l7eTTZs3ZJzH39ePyaTNKFy08ARcusN6EYVOJ5OmTCUajTK9qpr6mt1s37Y1a9fc+fGPM+/4BZjMFuJqZorSYrHgdnsoTtSeWa0WPnfpl4gHtWhPb2+PHoWqb6hl8u4a8vLzaGtp5V8PPjTsZzQcPd3dxFU1Y2DzcGTWRaWGEb/37kae+Oczoz6nEKAoJhVBVKpSIggoQtSpqlypqurbMi63A7VSqodm9W9gYHBEYAisQ0RK+X9CiBeAW4FvkJgVXRdBXNcCHyuAbxaB6wgduVNgBi/g8/ooK5tIPB7T/89/tAOJk919O3cc/AxPIQSKoiCEgknRLA7sdru+l+Nmz6GyohKfz8uOHdv0G/hoR6QA2O1WzGazXn9UV1eH2WzRxZRWeJXsANRqrrTidZm6AWertxKpa8joLkwzPa2urs7Yy7atW/F1dxyQQSWAw+HQa5aqZszh4Yf+rj+3Z0+Tfr7JkydnvO/ue+4kL294b5GAfwCzxUxpWRknn/yhTAf0wgKKy8uIRqJMmjyFtpZm6mp3611z377pR5hNZjZsXM/2zZuHPUcwEMCe6Fj92Mcuwm614/F4yMnJ1VN5Pb1aZ11ffz9bt2/m5Wefzyp+qhfMpWpmNa6DHNUkVUlfTw8ut5uCwgK6fT3aHL10482EoIrup7tvMCazCUUoMZBRTWCKfkUR2+NxdXk8Ht8IbEdzMj+gKccGBgZHF4bAGgMSbsXfFkI8AvwJWAhabfHzffCWH/l1D+KTzoT6OoIoUmI0AF3eLiwWC4WFTvLz8+nv7x+1h04kMT6juXnk5iRFKIhEN5+iKChCQTFp9gZ6HZSqokoVGYtmiKdly95gx84to9qPbvQ4qPvM4/Fw1533sHq1luaqra3VolBxSSwhonTplKUGSxdMQmR0FqZ5MySK4hPRrcTPAi0NWFxcTGenNtqls7OTQtfQNGi2YcmeRMTIbLHi96dqlrq6ajGZTPrn1NbWpouRwQIrHArjchXiThhgutMElMvlJt9VgLPUQyQSIc+RR0tzU2IOXxcmk4kbfvBdANatX0NbS0vG2gP9/TidLvIKtOHag/fudnswm82Y7BacTheRaIRQNMz6hP/X4IHGk6qnUVBQgD03Z9jIUk+i/iknJxebPYdwaHRDkTURpYmn/733j/T09NLS1EIwMLr3J1EUBbPFLAVEVVWNqaqUQuATirI5HoutiKrxLWhCqtEYH2Jg8MHEEFhjiJRyrRDiJODbwC8BB0BfHHFbBzzXBz+cALNt7+s2MyixaP/2d3Z0YrFqnYQul4v+/v5hO9gGkxz90tPTQzQaJSc3F1O6iFK0Ym+pStREWi0eV4mpMT1SlF4Ilc0eanCkKmmEOVhEOZ0uQOpGj4PNPHfX1uhr1NTUaOum12CJVF1VMj2YrLfSuwgTwkmLTgzTWZjlQmbNmqULLFVqUbl0oZOquerRRdSexgbWr1uDr9s3JJLS09OHw+HQOy6TswlhqMA65eTFfOKij+Pz+fR06s6d2/VIYFn5JD5/+VcAWLthDX09qeJyIQTxeAyTyUyBq5B4JJoh0iqmTKfQXYj7ky5qZ+xK7F0b87Ju7Xv4un3EYjFKy8r40jVXAdDl7aSlNVOoJen2+igoKMA1Qn1Uuuu7y+NiX2tKIEkp8fuD+AcChEIhPb2n1UWltE5D/f7dCixWCxazSUpJOB6PR+NxFSFEhxBiYzQSfVdKuRXYZlgfGBgYDMYQWGNMIuz/GyHEk8DvgY8nn9sagiv2wCVOuL4Y8o6AcFZ5Qux1dnZgtWheWEXFxTQ1NWWNYCXnzKX7Nb3+2jKef/5FpJQ0N7dw3HHHIaVKLBbVIlKqTHTTJRlZTCWxWq26qKiomM6nP/1JLWWVl084Es7awr+/uqW8vFx83m4AWlpaUFUVe06OFolK+FipqiaaktYMpAcgRkgRDkYXa4nOwurqKt5+W+vmk6pk6rQKvN4utm3bou99f8EOIYRe8F2QX8irryzXBda+ffv0FKHD4dAGJidE1yuvvExt/Y5h1/WnzbrzFBVRmFeYEYWaNHEy9lw7l1xyKfU7d+u+XFu3bsaSb2Pq9Ep279zFs49nNweFTGf+whFSez3dPqZWTKPQWZjhXZZOb+I7BHDk59Pb00df3wB9fQMM9PsP1DMKs9mM2WJWkTISj6tRVVWloihtSDYGg+HVCSG1XUo5toZvBgYGxyyGwBonpJRNwCcSI3fuI1EErwKP9cBrA/CdYriw8P3cJUxN1JK3tbbqTu7FxZrrtyM3nwsv+Kg+uDc3J5dAMKAXG3t9XTQ0NtDSskdfb+vWLVROrxikOYZXUcm6q/RoVzLiNX/+fFatWgVoAuDdd9/Z7+BbIQTOQmdGWjDZoZeTk8O6teu45ZalgGaaWVtby8xZM3VhM1KKMNu5kinC9EiX5qGlvSbZVaiqksrKlJ+Yz9fNiy8+l9XN3Ww2DzIeTRlgKopCb2+v3jUXj6dEcHqKEOD4hcfrAisYShX8pw96Toqo4uJipk6dhlAEF3/28zTW1esianfNLuxuByWlpaxZtYq3Xs0cT1M+YxpTp1fiyM+01hhMOBQkFAxiz8nB6RohOpUQTyaTmYLCAnrShBlo39vO7bv46x8eZMfWHTTUNexXmCYxmUxYLGYpkWE1rsZUVVUVxdQCcl0oGFoNbEMTUh37W8vAwMBgJAyBNc4kRu68AiwFbiBRhuWNwc/2wn964UelUDG6evIxZ1pSYLW1kefIZUZlJTNmzOBlIBwJ07a3ja1bN2etlUlisaX+GNXWZvr6aCLEhGJStLRhQkQJ3Q0+YeKpSuJqnGgsqtUyITOMOVvbWrHYNDFisVhxu9268PMkxEg2ATJ4/6FQZmdhTU0N1TMzC9AH73+wk7sQydBjupu7JJ6MeKXerP2WeDhjRqqTUEqJx1PM5PLJGR5OBQWFxOIxfViy19fFzl078Hq7shb1d3V16T+npwgBjj/+eF568SUATIqZK6+4Rk9D9vb26mnIpj2NbFi/FtfkEixmC68ve4WN763NWMvn81FSWkpeXv6Qz2gg0cmYX1Aw7OeYpLu7m7KcHJzu4TtUe9LSf4Vuty6wenv76ezw4u3qIR6Ps3H91mHXUBQFi8WsApF4XI1LqcaEojQJWBsKhVej1Udtl1J697tpAwMDg4PAEG4nrn8AACAASURBVFiHASllH/CNtCL4+cnn1gbgCw3wFTdcXQT2w5w2dCfG5bTv24dEsLe9A8WktTx2dXrZvHnjftdwOp0UOgvo7emjvq6OHLtWgyWE0ObxJQrXVVUlFo/qxeyQniLMTBsKISibWKaPl4lG4lx/3TcoyC8gGovi9Wpu4V5fV0Yt0f66Cgd3RtbW1iWiaMkolJJRuJ5MESZrriRaIftonNyT0amkQJs5M9O0tWr6TJyuQj0S6PN20dffN+poTE5ODrNmzWT16jUABINB+vr6KCzUwqILj1+ov7a7u5unn3mC3t7eYdfv7+3D7fHgyBsaifL3aSIqL4uI8idH8jgc+7U86O3upmziRAoLC4d9bdIhHQAhaGpspbPTRzg8vA2UyWSKAVEgrChij4TV4XDkPVJCaqhjqYGBgcE4Ygisw4iUcrUQ4gS04dE/B3IBYhL+5oU3B+Ducph8GIvgPYk/AV1dXSiKgtWSShEmi9xHY+bZ2X43GzduYseOnUSiEaQaT7t5iqw1WEp6R2EiuiUURR9Tc8opp7Bzx04AOju7eOCB3yOUA2vIEkJQkF+gFWQn9r9zewPd3VoaqqGhAZPJrHf+xRP7lqT2nk1Mpa8vFIEgKdJSwio57DlZFF9RMS1DVDz/wnMUlwyfKsu29+TnbrVaCQaDNDbsoa6uQY9ktba2UpAQQQuOX6CvJaWkvb1jROsN/8AAbo+HvCwCKznEOD9/aAQr+ZxJUcjNc+AfYWxSb3cq/ZdfWJBRTJ/E29nFC8+8wJuvLaeuZlinc7WouKivqKRot9lqeWHrhi0voQkpYzyMgYHBEYEhsA4zUsoYcIcQ4gngD8CFyefqw3BZI/xqEpw2cjnLmGFTwKwIYqqK1+vFYrVSXDIB0GpdvvPtG7FYzPs18+zo3Ado1gfxeAxByttKSaQI00UUEs2OQapIVSUejxNVo6iqRAhNgCTHwCTp7u7G7RmaWjKZTJotwyAh4nJpJpJ9fX16MXxra3NG1KShoSFjOPDQGiwyzEaFkipch3Tn9mS6M90zKzNFaLPZKC8v1+0swuHwsHt3Ol0Ze/d6vbS0JKwT0gYad3V143Q6dYG1b98+Zs+eDcD06dPJy8vTa9bCociIAmugTxNKjiwiKhmlchRkeS4hsADy8vNHFFjdvlRxutPl0gWWqqr4vL207+ukr2+AVSuzDuOOA8vQahpf6OzoNOwPDAwMjlgMgfU+IaVsAD4ihPg8cC9QCtAfh+80wddL4Iqiw7OXXBP0qdDc1ER1dTWlpRP05+7+ze2YTNnzlkIIXC6XFlGx5NLW2k4wGKS/r5+JZRP1Tjw1Yc8Qj0YT6UKZtob+05D1TaZMd9acHAfz5i3IiKTl5eWhxlV83T5dRO3atSOrk3jqpKljTU1NGfVVyRShUBQ073b0FKGeJtRCU2nraf8ZachOcv2qqipdYFXNmMW1116NL2Ep4dOtE/bfDZkkN8dOZ0cqCpRehyWE4Pjjj2fFihUACTE8vHJPCrG8LMXqySiVxWwe4js1kCao8vLzaWfvkPcn8XX5iMXjqPE4qDH21uzE2x8iFFGJxIfVS7uBvwAPGcXnBgYGRwuGwHqfkVI+JoR4Gfg1cC2J2//9HbAzBL8sB+s4zzQsUCR9QGtLM3PmztXm8yWIx+JMmjQpMSMvGWXRxtQIIejt1SJboWDKo2nzls0UZEQ6sqcIB6NHvBK/rrv2Ou688069Dqu4qITSCaV4fV4aGxp0J/H9oUeJks7keW5e/q8WHWtpacFs1grRpFRTIioWy+5vNUK9VdKOIaO7kOSIHS3aNWPGDN54Q+vCW7t2DcHwoZUG2XNsGV2VbW2ZLgILFy7UBdbgUUGDCYwgsNKjVPkFeRkCKxaL6d2BeYnoVzweJxgIEQyEIDxALBTAH4zQVbuD/N468oN76Wvx4e2V9A0dSQhaPdUzwB/Rhhob0SoDA4OjCkNgHQFIKXuA64UQrwP/R6LT8NU+mNAO3y0d3/N7LNAShta2NiwWCxNKJuhu7h9ecgHTKqbqBeXDzZkL+FM33Lq6ek4/7bSs59JTholOQpOiJIYli7QIkYqqxnn9jddR08aybdy4gYFAd9Z17TZ7wprBk1Yjppl3qqqku9und82lrxkOh2lpaWbCBC1qly1FmCTDgDRtHE4y1JUx6FlV06q4UkyfkbJqGNzReDAM9oka3Em4YEGqDmvwbMbBJFOEdntuhkM8ZEapHPn5dHVohqmxWJxgIEhdTS02i0JLzU52b9xEnlUyyyNYVBJnbpFkdhFUOGFFS4x73tvK6w0wjGJqQmsEeVBKuW80n4GBgYHBkYghsI4gpJRPCCEmAPcnj/3TC0sKYMHQqSpjRkmik3Bv216sVisxVdXd3J946jFKS4v3u4bNnqrtaaxvwGy2pEWjTAmPKHQnd6mqxGMxYqgJgTDUfLRqxgzWrnlPPx6Pq0ybVplRq+TxFOHIdRAKh3QB5fV20bKpeVjzzmAglPG4uSlNYCXd25O1VkJJm4STGvacUW81XIowi8dVulVDJBLVRumM5LY6Cux2ux7J86VZHIBm1ZAkvJ8IVjISJgQ48vMyCtBDoRDt7e2Eg0F62lpp3bmdQChKoQ1meSTRZ37BzCLJR0ph2rWgCBD2PBR3BfH27bxUG+eaF2FN9uyhCryEFq16UUp5YC6hBgYGBkcghsA6wpBS/k4IMRH4H9DuPL9ohX/NgJxxsnCYlOha3Le3jVgshslkoqhIc3MPBYdGPfLy8lIdbZ4iihJ+VFs3fw2/30/jnj2YTCZUVSUajaKqYSRyVE7u6SnCr33969TU1LB8+ZsA2Gw5nHzSKXh9Xjo72/V6Jb9/9AOT8/PzmTJ5Khs3bNeF1759+7BZ7WT4WulO7vEDrrcaicFeWOFwBLv90NpGrWk+ZINtKubOnasPuB7J5gC0LkJVqsTjKqFgmM7GesLBEMFwFLcdXrn1GywqVrnaI5l1EUwpSPv+0lPAQmCacxHCbGHVy0/yrVdgS2eWfZvojsR5APiTlHLP0FcYGBgYHL0YAusIREr5EyFEOfAVgKYIPNMNX/CMz/kmJu7v7e3tRKNRrFYLJSUlABTkF/LRj35CG+DrdmMymRgYGNDnzbW372P79q34vF6SSZ/du3cTDqdHiVJ3X914VBFDLBoA1OSgZFVl6pQpGcal7e3tPP7Ev0a8luEGPbtdbhSTQn9/H16vlxdfeJW+REqsrr6ecCSU2OnondwPhoqKioy0XjgUPmSBpaopUTV0ZqOV4447js2bN2cIrEgkSjAQJBwIQthPOBhkj6LQ99mLMIe6+WxJB+V53cxyw8T8Ie4Ug2rqUihl87Cc+W2C6x7j1r+/yt2rYXDtenEuWzoD3BqJ87SUMpplGQMDA4OjHkNgHbn8APgcYIPxFViepNloezvRSITc3FwmT9GGBQ8M+Kmrq+W9997dr5GnzW7F7w/Q2NCIoiiYTObUCByTNhKHRH1S0mw0FouN2FnodrtpadGGAsfjceLxODk5uVkHPRcUFKDGVbp7fLoL+u7dNbzrfYeenu6MvafXLTU3NY3NBzkKrFYrU6ZMobGxEdAKzw9mWpI20DhAb08/3q7UKJls38/ChQvZvHkzUkoatmwhHo8zIVcw1yNZOCnOLBfM8kBpLvDeNwEQB9jBKqwOLGd9F1PFGWz809e46tE6Ng/q96tys6qxh2s6/HLbgV6vgYGBwdGGIbCOUKSUHUKIfwFXAOwOwbYgzMkd+3MlzUbb29uJRKM4FEUfe9Le0cGuXZlDghVFwel0DfFuevY/L/Diiy8RDofp7Ohi4qSJqGqcmBpDjahpqbZsKcJB0wuFQBEmrrrqKr7zne/ox7/4hcsoKirKGCWzp2kPXm8X/f19o75mhyOHgQEttdiUsE04XMyYMUMXWAMDfiawfzUTi8Xp7x8g4A8z0O/H7w8AWm1UOtmsHdIL3e8+NcJHKhIPMry+Duwa0jFNOxXr+Tcjg908etMlXPdMH+E0nVdooyOqckWNV7508GcxMDAwOLowBNaRzb0kBBbAc93jI7CKEhGs3p4eQsEgisdDWdlEAKQqOfOMs3Ux5XRqzuM9ySiRt4vGPQ2sW7+Gmt0pIbZj5w48RUmX8sE2DRqDU4TJzkKBFqFRpeQTF308Q2D96U8PUOjc/8y7/ZHryNF/bm46/ALrtddeA6B9XxdWq4WCwnxycuzEolqtlN8fYGAgQDSiPU52Ju5vFNBwEawkvSOXYR0QwurAcs73MM/7DLGaV7n31p/w4zdienegIpB5Vu7qDXOzlDI04mIGBgYGxxiGwDqCkVJuEkIsB84G2BgYn/NMsOrnIx6NYjWbqJqu2QnEYjEG/APs3bcXr7eLnp7uYQ0wzeaUMWh9fT1nnHE6QiS6CE0KpqSI0jsKU/VW8bg26FlV1YyolsvlwmKxEI1qpTrhyNiU7NhzUnVPg72jxpsZVTMyHjc37YURzDlHw8JFC7nqyiv5whe+OOS59AhW0/5tw0aFadqp2M6/GVFQSuSdP/HjOx7gvrT50CaFQFzl4t6QEbUyMDD4YGIIrCOff5AQWHVhZFQiLGNsPGpXtF8hFbZu30ZRSQn5ztRImpUrVpCTa8/6XocjT7dLiEZi7NyhFaW3NLeSm+PQbRlUqRKNRxOdeaNzck9SXj6JhoZGACL76YQbLemF5aE008zDwXHHHXdI7/d4PJx44omcfPLJnHTSSZx44omUTCghczBPCqfTybRp02hsbDxkgZWMWlnmfwYZixB+4cdc99uXeSStqkoImuIqH5NSbj20sxkYGBgcvRgC68inIflDXCLqwzAzu9Y5JNwWaAtDa0srkWiUSRMn6s9ZrTZmzKjKHPTscmMym/H7/br/VFtbq/6eXbt24g8kzSlH5+Q+HCeddHJKYI1RBCt9Jt9YrTlalixZws03/4ylS2/TB2onsVqtTJo0ifLycsonl1M+qZzJk8uZNKmcyZMnM2nSpBHF1HAsXLiQxsZGmg9BYJmmnoL1wl+gFJQi/V2En/kudz+3NUNcAeuk5KPGSBsDA4MPOobAOvLJ8AfaFUTOtI+pcwCgpQnbwtDX20uOzUaxx6P7J82ePZdZs6rwer3UN9SyZu1qurt9Q8QBgMmkEI+rNDQ0ZDnLwXHa6Yt5/PHHAYiEx0YMKYqiX18sFhsTw88D4aabbuKmm26ip6eXrq4u/AE/ZaVllJQUa92WcEiidDALFizg6aefpnX4OczDIxQsp12P9dSvghDE23cQfua7vLy5nV+szHhlDXChlLLrkDZrYGBgcAxgCKwjn2ZIDMUDOqN0A+4R33EQTLLBhn5obm6if2AAq92Ox+Ohvb2dV155mZrdo+ust9ltBPxBGhoax0y0zJw5U/95f2aZB4LdbmVgQBOJmv+XdT/vGHucTidOp3NYX6mxIlno7g3pI6xHhch1Y7voNsxTTwYgVvM64Rd/yq6OEJe/iKpKkva3+zDElYGBgYHOOHmDG4wVUsowoKdb+lXG5QZWnihJamxsZGBggEgkopuNBoOjbwCzJ1JvoVBoyFy8g6W6ulr/+WDm9wWDIXzeHvr7UuEbKSXxtGL9WHRoNO5YoiBhuzFwAAFAU/lCcq74P0xTT0bGIkTeup/wf27E1x/ik/8m6I/q/370AR+RUo5d2NLAwMDgKMeIYB0d9AMTAKTEMh4nmJCcR7h3L9FolEgkwoQJpWzZsuWA0nI2W6p4vL6+gYlptVwHi9PppKioiK6uLq3bMBLFYk19DPFYnO7uXoLBEGUTJ+jdjKqq0tzURltrh15Yn5Njx263MeAPEE3UXuXm5masd6wRDof57W9/C0BMlYRiYN/P33zLyZdjPeuboJiI175J5PU7kX2tBKJw4ZO0tw1ofx6BMPApKeXGcb0IAwMDg6MMQ2Ad4Qgh7EDSGhK7ot/YxpSSRHZs3759RCIRopEIE8pKAYgeQHQnfehzQ0MDp59+2pjsb9asmaxYoQXvvN4eSsuKCQSC7Glspae7j1xHDnPnVWMyaeKqq6ubPQ0tQ1KKwWBoSETuwo9ciMVybAqs3bt38/nPf56NG1P6Z18Apg1jJSZs+dg+9kvM1Wcje1oIv3Yn8fq3EMDuHuSFT9LZGdD/DMaBS6WUy8b7OgwMDAyONgyBdeQzG9ANpjxmxsFqNOWF1dvTQygUIhKNMnXqNABicU1gxeNxQsEwjrzht5DenVdfVz9m+6uunsmKFVpFdWNDC60t7YQjYb2cyD8QYM3qzZjNZn0Ez/5wuVxccMH53HPvPWO2zyOF/v5+7rvvPu666y76+1OtgwKIDONVapo4D/tFSxH5JURX/C+R1X+FWIQ48Mg2ot9fTiymUpJ4uQpcI6V8ZpwvxcDAwOCoxBBYRz5z0x9UjoNFA6QiWFJK2lpbKSkp4fhEYbQaV+nv97OnoQWnq2BkgZXmLzWWnYQnnngCf/3rX7X9qCrh8NBaLFVViUSGL4IvKChg8eLFnHHG6Zx51lnMnzcPRVHGt7r8MBMMBnnggQe4/fbb6epKlespAj5ZCT84Aapdme8RNge2s7+JZeElxOtXEH7sBmSvNv/x1T1w0wpiu3xYQE9P7wSuklKuOiwXZWBgYHAUYgisI5956Q+m24Z72aHhMoNZQExCa2sLc+bOZf78+QghkFKydfMupJT7rVVKj2DV1dWN2f4uvviz/O2hh1jz3poRXyeEoKioiLKJZUwsm0hpWSnV1dWccfrpzJufEFTJ1x5DyioSifDXBx9k6dLbMpzpFQEXz4DvnwBVzqHvM8/8MPbzfwTxCKGnvkes7k0AtnTBT1fCm9oUoeS/E3HgbuDnxugbAwMDg5ExBNaRz0nJH1xm7dd44TRDV1QrdI9EIniKiljy4XN5/bVX9SLxbl8PgUCQ3NycrGtYLGYURUFVVerrG1BVFUUxZX3tgWCxWHj55ZfYunUb4XCEaFSrE4tEY8TjcTweD2VlpUyYMAGrxTokKiXG2wfhfSIej/PII49wy623sKcxZZlmEvC5KvjeIpheyNDPo6AU+wU/xjTtFCLvPkR09UMQC9Pqh1tWwWO7hpg5bAOulFKOrHANDAwMDABDYB3RCCEWkBiTA3BO/vieb4JVE1j79u7TOwmX3n47l32pmV07dwKgqpKG+mbmzK0edh2bzUowGCISidDS3MKUqVPHZH9CCObNSwX0hHZwTNY+2pBS8sQTT/Dzn/+c3bt368fNCnyhGr67EKbmk2XCthnriZ/HetYNxHa/hf9/P4Xsb6c/Cr9ZBw9sgnBmjVYn8Gvgd1LKMRwVbWBgYHBsYwisI5ufpD/4vGd8TzbJBtv80N6e6iScOXMmz7/0Eg/++c/cc/fdhMNhentGnrdit9v0Tr3a2toxE1gGGs899xw/v/nnbNmyRT9mVeBLs+A7C6A8j6zROvPMD2Nf8i1kqI/gv75GvG0zwRg8uBXuWQ++zKRfD3AXcJ+U8mD83w0MDAw+0BgC6whFCDEXuDj5eJEDqsapwD1JWaJ8qrOzk2g0qkexbDY7n/7sxTTt2cM///GPjPeoqqpZHwRCqAE/sUCAUH9Af76tbWzMRg3gtdde4+abb2bNmlSWzmqCy2fBt+ZDWV72LKipfD72c7+HKJxIeNl9xLa+SCgmeXA73LceOjNnXQ8AvwXulFL2jOsFGRgYGBzDGALrCEQI4QKeIs1p/4qi8T9v0qqho72daDRCJBrRR8hYLRaOX3SCLrDatu/EH4pgFZKKHDglN84sh2RGMbzkhQcS5UB+v3/8N36Ms3LlSm6++ee89dZb+jG7Ca6cDd+cDyXDNHUqrnLsH/425hlnEFn9dyLv/I1gMMjftsO9G4YIqxDwAHCblLJz/K7GwMDA4IOBIbCOMIQQJuBxQC9yusgJp41z/RWkBFZnZyc9Pb14PEVEIhEKCgqwWK2UlpYm9gi/m+Znqh1MacOWkuVQr/tSxwyBdfCsXLmSW355C2+88YZ+LMcMX50NX5sHRTnZI1Yirwjb6VdjXfRZYrvewP/HTxHs3qcLq45AxsujwIPArVLK1nG9IAMDA4MPEIbAOvK4Fzg3+WCSFW4sOzwnTvfC2r51K5OnTM6IYCUFlpTQFYHK7I2EeNMm66hp8/4MRsfKlSu55ZZMYeWwwDWz4YZ54LaRVVkp+SXYTrsS68LPIIM9BP75NfwNa3l4hyas2jOFVRz4B/ALY4aggYGBwdhjCKwjCCHEdcA3ko8V4JZJkHuYRnJPSFlYsX37dpacey7RRLG7xWolLz+P3NxcAoEAz3TAyYVD14io8HxH6vHChceP/8aPEVasWMGtt97KG2+kJs/kmuG64+D6uSMIq4JSbKdfiXXhpxAmK9HalfQ8/VMeXtfDvZtgX2YQUQJPAjdLKXeO6wUZGBgYfIAxBNYRghDibAG/T/ceuroYFozLYJzslFrBpkBYhZUr3uaa664lEo0SiUaxWixYLVZcLheBQIDXfZopqVlAVMLOAVg7YOLvexV6oloIS1EUTj7l5MN3AUcpK1as4JZbb2H5suX6MV1YzQHXcMKqsAz76VdhXfhJMFlAjdH78m948KFHuWejZO/Q7OzzwM+MwcwGBgYG448hsI4AhBCVZsF/YjI1c/AjhXBd8WHeBzDVDjUBrQ5r+bJlXPK5zxONRLDZ7VisVtweD62trfTH4PsNOXQpdnpiCnmFLvb19dAZSI1nuebar5KffxiKx45SVqzQUoHLly/Xj+WatVTg1+aAa5iuUaWwDPtZ12Bd8AkwmUGN41/7b/78h/u5Z1UPbUOF1RvATVLKd8fnSgwMDAwMBmMIrPcZIUSRTfB6WFKQPHZaHvy/ie+P8fg5Lk1gATz8t79x4Uc/iidaRF5+PlaLhbPPOYctmzcDsKIHIEQwGIR2b8Y6ixcv5he/+Pnh3fxRwsqRhNVx4BxOWOUXYzvzq9gWfRrMFlBV/Oue5S9/uJffvNOdTVitQhNWy4auZmBgYGAwnhgC631ECFFgEywPS6Yljx2fC3dM1kadHG4ksMQFj+yDQBw6Ojp4+823mDRxEoqiYLFaWXza6fz+/vsT/lfBIWvk5+fzzW99kxtuuA6z2fjjlc6KFSu45ZZbefPNN/VjuWb46qxExGqYOZPC4cZ+xpXYT/ocmK0gVfwbXuAvv7+He1Z6aR0qrDagpQJfGKdLMTAwMDDYD8Yd8H1CCJFjFbwSlsxJHquywT3lYDtM4soXhWW9sDpoYWfITEcoRjgWJx7XOv9ycnLo7+/njw88QHNTE5s2baS+rm5IZ6AQgrlz53L++edxzbXX4Pa4j8WxfwdNNmGVY4ZrZsENx2nCKtvEH5FTiP20y7F96FKEJQeQBDb/l7/+7m7uXtlFy1B/9R3AzcBTMjk80sDAwMDgfUEY/w4ffoQQFovghajkvOSxcgs8OA08ZsiYSyxSv4v0x6TdlEc4JgQEVKgPwjv9sNEvqI+a8UZUonGVg/n+c3JymDFjOrNmzeaMM09nyZJzKCkpydhopl4YfCztpyEXOsyxzP+kHRuqTLINdh72WOaSWY6JzLeJUR4DVqxcya3ZhNXMlLBK/5705ewO7Iu/gn3xlxE2ByAJbHmVv/3ubu5e0UHzUGFVD/w/4FEppeGLYWBgYHAEYESwDjNCCMUs+Fe6uCoyw++nJMTVIeCLQWMY6kOwPQjbAtAaFfhj6SJKonlL7p9CZyHVVVVUVVVRVV1NdXUVM2dWU15ejhACEB/UWcsj8vbbb3Prrb/KcF7PMcNXZ8INs0eIWFlzsH3oC+ScfhkiR/PACGx7g7/dfyd3v70vm7BqAW4F/iqlHN2XamBgYGBwWDAE1mFGgb/EJJ9NPs43wf2TYZJl9Gv0xqE2BLVhqAtBTVD73Z81djFyhEoIQVlZGdOnVyaElParuqoqLSoFiKERGoNMsgorE1w9E742e/iuQGG2Yj/lc9jPuBIlzw1AcMdbPHT/7dz1ZhtNQ4VVB3Ab8EcpZWjIswYGBgYG7zuGwDqMKELcLeHK5GO7AveWw4xhiptDKtRHEkIqnBBVIeiKHfi5XS4XldMrmV5ZSWVlpfbz9EqmVUwjN2eQ2ZYhpg6It99+m1/dunSIsLpqJtwwC9z2YTpCTRbsJ32anLO+ilKgeXIEd63k4d/+mrvebGFP/5B3dAN3AfdJKY0ZRAYGBgZHMIbAOkwIIX4GfC/52Czg9okwP23cTGsU3u6HdQFNVLVG4EAKanJzc6moqKByegUVFRUZYsrpcmr7yCw4MjgEli9/k9tuu423335bP2Y3wdXVWirQPYxwRjFhW/QJcs65FpNLm4MUqn2Xh++9jbuWN9E4VFj1oo1QukdK2Tv2V2JgYGBgMNYYAuswIIT4FvBL/THwi1L4kAPWB+DtAVg5AA2R/a9lNpuZMmUKlZUVVFRWUjk9JaQmTJiAUIR+DhD09vby6quv8dKLL9Hb18cFF5zPBRdcwNSpU8bjUj8QLHtjGUuXLuWdd97RjyWF1fWzwDOM8zpCwbbgI+QuuQ6TZzIAobo1/P3eX3HXsj00ZBdW96EJq55xuRgDAwMDg3HB6CIcZ4QQlwN/I+2W+8MSuMQFt7XDv0e4bSqKwqxZMznxpBM58aQTWbBgPlMmT8ZsThRsZTS8ZXa/1e6u5Ve33say5cuIRYfmFC/9wqX8/Bc/o7CwcGj/W7YUYda0YbYi92O3i/D1119n6dKlvPvuav31dhNcVZVIBdpIXWf6uRSBbe655J57A6biCgDCjet59N5fcefr9dQPFVZ9pIRV95BnDQwMDAyOeAyBNY4IIT4j4AmpzW0G4BoPTHDk8JcehX19mWU0DkcuCxct5MQTNUG1aOFC8vIcGSIim5hKPzbgH+Dee+7jL395kFg0hhCCqqoZTJ8+ne07drCncY++1oQJJfz76aeorKwcvHFDYKXt4dVXXuG2237Ne++9CdzduAAAIABJREFUp78uKayumwlF6cXrgwSWdfZZOM77GqayagDCezbx6H23ctdrtdT1Ddl6H/Bb4DeGsDIwMDA4ujEE1jghhDhPwAsS9P7AzznhW8XwRW8hQZOFzk5tbt/xC49n6dJbmDVrFqY09/PUPX50AiscDnPOOR+maU8TACUlxfzhD79nwfELyHVohezL3ljOj3/0P7S0tAAwZcoUXn7lJZxOZ/rmDYEl4L//fZnblt7GunXr9OftJrhyBlw/Ezz2wfvVLxVr9anknvc1zJPnAhBt3saj993CHa/syias+kkJK9+QZw0MDAwMjjqU/b/E4EARQixW4D/p4urCfPh+CbzsN1M8eaourgBu+ulPmDNnDiaTKet6o+Xhh/+ui6vFpy3mqX8/yaOP/oPZs+bwxutvALBkyTk8859/43ZrdgBNTU08/NDfD+m8xxovvPAiZ5x+Jhd/9mJdXNlNmqha/VG4aX6izioLlooTcF7/Vwqu+gPmyXOJtOzg4R9+keM/9mWue3KIuOoHlgLTpJQ/NcSVgYGBwbGDEcEaY4QQCxR4SyVteLMD7ioDk6JFr/aFYwwMaOnBs885m4ce/usI0apsx4ZGsAYG/Cw+9XR8Ph9nn3M29913D5d+/ovs2LGDJUvO4eFHHkJRFD1C8+qrr3H5ZVcAMHnyZN5b8276RXzgIlhSSl54/gV+/evb2bRpk/4amwmumA43zNREVcYWkm8XYJkyj9zzv4616hQAYntr+Nd9t3DHS1vZNbTvbwC4H7hbSukd8qyBgYGBwVGP0UU4hgghqhV4LV1cLbDDr8u04c3vBgSqI58Bb0vy9dz4w++Pyblf/u8r+Hw+hBDc9NP/4cc/+h927NhBVdUM/vDAH1AULVjZ1dXFU0/9m+uuu5b58+ezefNmmpubCYVC2O3DOGEew0gpefbZZ7n913ewZcsW/bjNBFdUalGrouG6AgHzpNnknX8D1llnABDbV8fjv72F21/cxI6hDQwDwO+AuwxhZWBgYHBsYwisMUIIMVmB11UoSh6baYN7JqaGNz8UKaClp11/z8c+9lHmzJkzZK2DYVfNLgAuuugTOHIdvPTSfzn//PO4/Y7byc/PA2Dz5i1cfeVXWbRoIVwHi087lc2bNwOwd+8+KiqmjclejgaklDzzzDPcfvsdbNu2TT+uC6vqRMRqOGFVOgPH+ddjm7sEEMQ6G3jit7dw+/Mb2D5UWPlJCauuIc8aGBgYGBxzGAJrDBBClAhNXJUnj02zwH0TwZGocqsNQ3MUIhFtZJzJZOL7P/he1vUOht01uwGYPmM6EydNZNW7K5kyJeV19eSTT/GjG39MaekE7rjzdqLRGKvT7Aby8hxjtpcjGVVV+fe/n+bOO+5kx44d+nGbCS6rhK9VpYrXs2Eqnorj/OuxLzgfhELc28y/7/8ltz27lq1D+/78wO+BOw1hZWBgYPDBwhBYh4gQwingVQlVyWOlZrh/IrjSatb/Gs7H15caKnfxJZ+lorJizPaRTAG2tbYlzEg1I8v+/gFuu+02Hn7o7+Tl5fHQw3/D6XTy85t/wYYNGwEoKMinuLh4zPZyJKKqKk899RR33HEnu3bt0o/bTHBZBdyQEFbDBKwwuSfhOO9achZ9HBSFuK+Vp393C7/+z2o2Dy1N9wN/QBNWneNyQQYGBgYGRzSGwDoEhBAONCuG+cljHhP8fiKUpH2yXTFYMxAnHo8DYLVa+c53vjWme5kzZw4vv/wK6zdsIBAI8OCfH+T//u8xmpqakVIyb9487r7nTqqrq3n88Sf485//or93+vTpozpHV1cXK1espL29A4CKykrOOusMbLbhZsK8/8TjcZ544gnuuvNudu/erR+3meCyaXB91SAfq0EohRPIO/er2E/+FMJkJt69l2d/fytLn17FJt+QBpEAKWHVMfZXY2BgYGBwtGAIrINECGEFngYWJ4/lK1rkqtyS+dq/h3Lwh1NzcL78lS9RNrFsTPfzoVO17rWaXTV88dIv8Y1vfp2BAT92u53vff+7XHvdNSiKwtKlt/3/9u47PKoq/+P4+8yk9wYh9GIDXVjA1QXpTaQoTcSCoJQkgLIW9GdDEAIiHUIJEELvRcCCgCICUlwVwbZK7y2k15nk/v64mclMCqRMIMD39Txucs89t+VxHz/Pued+D5EzZ9kdW79B/YJOafXLoV8YMzaCvXv2kverU3d3dwYOGsDbb7+Ni4tzIWe4+cxmM2vWrGXSxEkcO3bM2u5i0Eeswu6FCtfJhQbvQDzbvIxH014oJxeyEi6xZXYE49fv4efYAoPVHOATCVZCCCFAyjSUiFLKCKwBelja3A0QGQIP5anqnZYNT15wIzEtHdCrte/evYuAoAAKLFxQwjINoAgdHMbnn38BQL169Xjl1WE8/ngHXF1d2bdvH59MmMjBgz/YPUvjxo2IXhhNcHBF2wdEoU8EH/PRWObMmWsXrJRS+YJW3bp1+XTTRvz9/W9pmQaz2czqVWuYNGkSJ06csLa7GKBvTf1VYJDtkja2p1Rg9PTFs3V/PJr1QTm7kZV4hS/mjmPcul38eDXf/1fSyA1Wl/LuFEIIcfeSgFVMSimFvrZgP0ubs4IpleBf7vmrei9LdmZuLJhM+uT2ocOGMGLEGwWHBf0CRWgrOGBduXyFJ598ijNnzlr7G41GNE0jOzvb7jkCAgIYG/ER3bp3o6C1CNE0Xhn2KuvWrQegQoUKvPb6f/j3vx/l3nvv5a+//ubrHV8zadIk68T9Z/r0ZubMmbckYJlMJlauWMnkyVM4deqUtY8lWIXdkzNiZROmbC+j3LzwbP0ini2ew+DqSVZyLFujxjN+9TccLDhYzQUmSLASQghREAlYxaSUmg5YJ1AZFYyvCC08Lftz+2Yr6HTOlbi0DEB/nbb3+90EBPiXScACSExK5M033uKLnJGsgnTs2JGJkyYQGBSYc2T+gBUTHcO7774HQO/eTzMmYixuri788fsfNGzU0Ho3Bw8eoO8LLxIfr1fTXLduLS1atbhpASvTZGLFihVMnjSFM2fOWPdZglVoHajglvcc1ltCuXrg2fI5PFv1Rbn7oKXEsW3ex0Ss2sGBK/ahFD1YRaEHq4t5dwohhBAWslROMSilPsImXCng/SBo4VFw/23JimRz7n+kn32ujx6uypCPjw/z5s9lxcpl9OjRHU/P3PILderUYcyYj1gYs4DAwMBCz3Hh/AUiIsYB0KpVSz6ZOIEVy1fwcONH2LnzW7u+jz76KGPGjLFuxyxa5NDnKUxmZibR0Qtp1LAx/xn+mjVcuRjg5Vqwpw28X6/weVbK2RXP1i9S4YPP8XpiKGRrbJv+Lq3btuPJmdvyhqt0YDpQR9O01yRcCSGEuBEZwSoipdTrwGTbtjcC4WlLzXabZVMsul9y53xyGgDOzs58t2cXIZWCbfo7fgSroLbk5GRMZhP+/v72o1XWvvbjTbNmzWHsmLH4+vmyd+9uPhw5ivXrN9C5cyeiFy5AqdxhIMuvTZs8xtGjxwgJCeGXI4fKbAQrIyOTpUuWMnXqNM6fP2/d72KAF2pAaG19xCrvaJXlh3J2waNJD7zaD8DgE4SWmsg3MZOIWPYFey9lkUc6MA/4WNO0C3l3CiGEEIWRrwiLQCk1gDzhKswfevkUcgDwcxpcSTdZt3v26kklS7i6yby8vPJOirqur7ZuBaB5s2Zs3rSFDRs28vobrzFixJs24cpetWrVOXr0GBcuXODixYuEVKrkiFu3ysjIYNGixUybNp2LF3MHkJwN8Hx1CK9z/a8CMRjxePQpvB4fhNG/ElpaMjtnjyZi2RZ2X8wXrDLIDVbn859MCCGEuD4JWDeglHoa/T+2Vs/7Qj/f6x83NcUdk1kfvTIajYSFh5bVLTrcXzn1oh7+18M4uzizbNkS2rZvV2hGO3nyJHv27LFuW4qeOkJ6ejoxMYuYMX0Gly7lzid3NsBz1SCsDlS8zpI2GAx4PNwJ746hGAOromWksCtqLBFLNrHrgjlv7wxgPnqwOuewhxBCCHHXkYB1HUqpJ4Dl2MxV6+YFw24wjeq0CY4l59a96tKlMzVqVL/OEeWLQemPe/nyFUaOtA+G6enpfLfrOzo83gGA1NRUwkLDrV9Jent7U7FiRUorLS2NhdExzJg5kyuXc4uhOxvg2WoQVhuCr7MIM0rh3qgD3k+E4VSxJlpmKrsXfMy4xev55nyBwWoBMF6ClRBCCEeQgFUIpVRzYD1grZ7Z3hNGFD433GpigivmrAzLeRgyNKyM7rJsGI36Gj+WtQq3bN5CfEIiGRnpzJ49h/79XqTD4x0wm80MeHkgP/30s/XYrl27luraqampLIxeSGRkJFeu5C7f52yAPlUhvDYEX6fyOoBb/db4dArHufK9aKZ09sZMJCJmLV+fM+XtmklusDqb/0xCCCFEyUjAKoBSqhHwGeBuaWvqDiMDb/zZZUIW/JSc+x/ytu3acN/995XNjRbiyuUrfLfrO377/XeUUhgMBurXr8+TTxUt/PR9sS9Tp0zlxx9/ZMqUqXTs2JHXXnud1NRUXn31FV56qT/p6ekMHDiYr7/+xnpc/5f68/HH40t0zykpKcyfv4DZs2YTGxtrbXdW8ExRg1W9x/DuPASX6vXQzJnsWzKFiAWr2X4uM2/XTCAaPVidyX8mIYQQonQkYOWhlHoA+AqwTmFv6AoRQeBUhInin8Q7Y87KDVjDhg0pg7ss2MmTJxk1ajRf7/gmX6V1gK93fM34j8fZlW4oyIi33uTIkSPs2L6DTyZMJCUlhfUb1uHt5QXAxYsXGTwolAMHDgIQEhLClKmTadu2DcWaTY/+heP8eQuYPXsO167lrprsrKB3VQirCSHuhR8P4Hrfv/DtOhSXWg3QzJkcWD6TcfOW8dXZTPL8FTKBhcA4CVZCCCHKkpRpsKGUqgnsAapY2h5wgciK4GGwmUhdSDVwkwZtThswZek1lB57rCnLli+xqxlgX4HAcWUaVq5Yxbvvvm+dCwX6qz7LAtMWtWvXZv36tQRXCi60TANKkZiQSK+evThy5FcAgoKCaN26Fc7OzmzYsJH09HRr97lRc+jRo7vdH+VGZRqSkpKYN28+c+fMJS4uzrrHSUHvKhBeCypZCoTmLbeQ89OldgN8uw7F9b5/oZlN/Lh2PmOjlrD1TEbeYGUiN1idRgghhChjErByKKUqoYerOpa2Ws4wOxh8DZY+ls65P20D0+RrBtbG5xaoXLFyGU2a/LvMA9biRUv44P2R1lGrlq1a8uYbr/HgQw/x55//47MtnzF3bpR1uZzHHmvK6jWrMBgNOafJH7AU+vIzEWPHERU1r8ARMYDh/3mVd999x6421vUCVkJCAlFR84maG0VCQoK1h5OCpytDWC2o7Gb3p8n3d3etUQ+frkNxq9cULcvMz+ujiZi7iM9PpRcUrGLQg9WpAh9ACCGEKAMSsAClVADwLfAPS1uIE0RVhCAn236WX3J/Wn7VFLQ+bSTdrI8YNWz4TzZsXGfTv2wC1q+//kbXzk9iNptxdXVlQfQ8mjVvxuZPNxNcKZjmzZsDsG//fl7uP4DExEQA3np7BP95bXjOaQoOWBa7d+9h1apV7Nu3n/PnzuPv789jjzVlyNAhPPxwY/IcXGDAik+IZ97ceURFzbPeA+jBqldl/VWgJVjl+dNYH9+56r34dAnHo0FrtKwsDm2MYdychXx2Ko1s+3+NTcAiIEKClRBCiFvhrg9YSikvYAfwqKUt0AhzK0IVJ647kmIbJBbFw9zcN10siJ6XMyeJMg1YXTs/xaFDh3ByciJ64QI8PT14/fU3OX3qNG+9NYLh/3nV2verrdt4+aUBALi4uPDbH0fw9PS8YcCybUtJSbGZw6XIX3/KPmDFxcUzZ85cFsxfQFJSkrWXUUGvEAivCZXd8x1u93d3DqmJb+cw3Bt3AE3j8OYlRETOZ8vJ1IKC1WL0YHUy750JIYQQN8tdPcldKeUKbMImXPkYYHoQVC7mX2Z5shOg11d64IEHaGMJV2Xo6NFjHDp0CIB333uHzIwMBg0cTGZmJm3atiF8iH15iMc7dqBnzx6sX7+BzMxMdn37HZ06P1Gsa95ogrzFtdhrerBaEE1ycrK13aigZwiE19CD1fWmxDsFVcWncyiej3QCBUc+W874GXPZdCKFLPtgZSY3WJ0o1gMJIYQQZeCuDVhKKSdgDWBNQh4KJgfpc6+KY0sSJJlyi1cOGRbuoLu8vp3f5JZIaNmiBd2798RkMvHq8FcYMeINDAZjvmO6dOnM+vUbANix4+tiB6wbiY2NZdas2cQsjCElJcXablTQsxKE1YAqN/gq0OhfCd/Og/Bs+hQoA79vXcW4aXPYeDypoGC1BD1YHXfogwghhBClcFcGLKXPyF4EPGlpc1EwIQjquRT/fFGJRkCfe1WzVk06dXJsaCnM5ZwK5/Xq1cXP34+HH36YF/v1pV37ttaRIbPJTEZmBp5e+sjTX3/9bT3ebM5XeLPErl69SmTkbBbFLCI1NdXablTQwxKs3K4/YmX0DcKn0wC8mvVAGZ35c9s6xk2LZP3RxIKC1VJgrAQrIYQQ5dFdGbCASOB5y4YRGBMAja63WHAh9qbC1czcUgjh4aEOXYvvejIy9Grx167FERwczJKli6wJxmw2s3nzZ0RHL2TDBn2y/Vdbt/HJJxOtx1epUiXvKYvt8uXLRM6cxeLFS0hLS7O2GxV0D9aDVdU8XwXmZfDyw+fxl/Bu9QzKxZW/dmxk3JTprPs7AbN9sMoiN1gdK/XNCyGEEGXkrgtYSqlxgLX6pwF43x8eu0GV8MJMjc8dvQoJCaF7j26lv8kiqlu3LqAX/jx16hRJScmsW7eO7Oxsvtq6jUuXL7FkyWJcXV3Zt28/4WFDrHWxqlatSq+ne5b42leuXGHGjEiWLF5iVxPLqKBbMIRWh+o3ClYePvi274t32+dQbh4c3bmFcZOnsuZ/cQUFq2XowepoiW9aCCGEuEnuqoCllHoLeMe27XVfaO9RsvMdSYezGbmjV4NDB+LkdPP+pE0fa4JSCk3TGPXhaEaPHsXyZSswmUw0b96MmEXRPPjgg+zds5cBAwZaR7zatm3D5CmTqRhcodjXjI2NJXLmLGJiFuUbsXqqIoRVh2o3mGNlcPPEu91z+LR/EYO7Fyf2fMn4iZNZ+Wcspmy7rlnoi22P1TTt7wJPJoQQQpRDd03AUkqFAhNs28J8oFvRPoor0KQ4BTmlLQMDA3mmT+9S3GHx1ahRg6d7P82a1WvYvn0H8fHx7Nq9Ex8fn5xlbRSrV6/hrbfexpwzCX/0R6MYNGhgsa8VFxfHnFlzWLAg2m6OlcESrKpB9RsEK+Xihk+bPvh27I/B05eT+7bx8YRJrPjjCpn5g9UKYIwEKyGEELeju6IOllLqWfRXTNbJUS946QFL72DpZ3tQ4QUvUXAsE144n7tvxIg3CB8altvB9tAyrIMVGxtLp45dOH9evxlvby8GDhrIoEEDmDtnHjNmzLQe2/XJrkRFzSHPya5bByshPqHAcgsGBU9W0Eesqhe2pE3O/ygnF7xb9cK308sYfQI5dXAnEz7+mOW/XSYjf7BaiR6s/kIIIYS4Td3xAUsp1Qn4FLAWX+jmAW/6YlcwVO9re+D1A9aQi/BzztQjb29v9n7/HV7eXnYnvBkBCyD2aiyhoeEc2H/A2s/Z2dluXcLGDzdm9ZqVeLjbvA+9TsBKSkxkXtR85s2bb1d53aCga5A+YlXDnUL/PgAGoxNezbvh22UgTv7BnPlxN5+MH8fSIxdJtw9W2eQGq/8hhBBC3Obu6FeESqlmwDpswlV7d3jNt3TnPWOCQ7nzunmxX1+8vLwKP6CMBQUFsnr1StatW8/xY8c5c/YM586dx9fHh8qVK1O5cmX6v9wPd/cbvMMDkpOTmT9/Qc5agfbBqoslWLlRQAV3GwYDXk264N91ME4VqnDu0D4+CR3A4sPnSLdfezobWA18pGnanyV7eiGEEKL8uWNHsJRS/0RfX9Aapx5zhYgAvSyD3QBSMUew3r4C3+VMQ3J3d2f33l0E+PvnHZ667ghWQmICW7/cxuHDR7h44QKZmZm4ubnxj/r/oF//F/Hz8yvyCNYN2+zaC25LSUkhOnohc2bPJT4+3trFAHSqAOFVoabNV4H5lg0ClMGA5yMd8H8qDKdKNbh4+AcmjhtDzKEzpOUPVmvQg9UfCCGEEHeYO3IESyl1L/AVNuGqkQt85KeHq9K4aIbduXO86fPsM/j7+xfrHGZzFh3aPcGlS5fy7du+fQebNm3mq21f4uJczJLyJZCWlsaimMXMipzNtWvXrO0K6BwEYVWgpsf1C4SiFJ6N2uDfLQznKvdw6Y+fmPT6cGJ+OkVK/mC1FhgtwUoIIcSd7I4LWEqpqsB2oKKlra4zjPfXq7WX1vwEy3eD+jynQYMGFPscp06dLDBcWRw7eoy9e7+ndauWJbzLG0tPT2fx4iXMipzN1atXre0K6BSoB6taRShf4dGgOf7dwnGpUZer//uFSX17EP3fEyTnD1br0IPV7w59ECGEEKIcuqMCllIqENgG1LC01XKCiX76OoOldTULvspdXo+ePbsTXCm42Of5++/cWplVq1Zl1pxIwsOGcP5c7meJfn5+pbrXwmRkZLBs6XIiIyO5dOmytV0BT+QEq9o3nqqFe71H8e8xFNc6/yD26O9M7vc0C344SpLZrptGbrD6zaEPIoQQQpRjd0zAUkp5A1uBupa2ykaY4g8+Dlq5Zmki1jXxjEYjoWGDS3Se2Kux1t9TUlL4ePwEu3Dl5GSkbt0HSnWveZlMJlYsX8mM6TO5ePGitV0BHQNsgtUNgqjbfQ0J6DEUtwcaE3fif4x9+Rnm7f+LxPzBaj16sPrVoQ8ihBBC3AbuiICllHIFNgEPW9qCDDDVHwIdFK4SsmFjUu525y6dqF6jeonO5eGZ++4tLi6Ofd/vs9vfomVLXF1LsDBiAcwmM6tWrWL69JnWWlmg56jHAyC0MtxThGDlWvshAnoOwf2hJiScPsr4gc8S9f2fJOQPVhvQg9URhzyAEEIIcRu67b8iVEoZ0V9DWRcB9DFApB/UdLbtZ/nF5kcxviKMSoDFCdZr8sXWLdx3333WzvZfHF7/K8K0tDRat2rLxYv552HVrfsA6zasxcvLq1RfEWaZzaxdu57p06Zz5sxZu+M7BEBYCNRxz/+c1u2c312q30dAzyF4NmxJ4pkTTBvzAXP3/kZcbokt0IPVRvRgdTjfQwkhhBB3mdt6BEsppYBobMKVh4JJflDTgU+WpsGa3JJQtG3X1iZcFZ+7uztbPt/ER6Mj2L5tu3Wx5IaNGhI1b06pamplZWWxYf1Gpk2dxqlTp63tCmjvrwere4owed2lci38e4bj9a92JJ4/TUR4P2Z/d5hr+YPVp8AoCVZCCCFErtt6BEspNRX4j2XbVcEnvtDQxdLBtq99W3FGsFYlwYy43F0bNq6jwT/r23UuzgiWbVtKSipHjx7Fx9ub2rVrlaiSuwKyszU2fbqJKVOmceLECbv+7fxyg1Xe2l55R7CcK1UjoHso3k2eIOnyeSLHfMCsXb8Qm2n374mG/kp2lKZpvyCEEEIIO7ftCJZS6gNswpUTMNoH/ung0lFmTZ/cbtG0aRMaNKhf+AHF5OnpQYMG9W80BapQ2dnZfLblM6ZOmcbRo8es7QpomxOs7i3CV4FOQSEEdBuMd/OupMZeZsLwwUTu/ImrmfkCuCVYHSrhLQshhBB3vNsyYCmlhgIfWbYNwLve0MSl8GNKansqxNnUdBoyNNzxFymB7OxsNm/ewvTpMzhqU/ZBAW18ITQE7nO/wZI2gJN/BQKeGohPq+6kJcQx+Y0hzNzxA5fzB6vN6MHqZwc/ihBCCHHHue0CllLqOWCmbdvrXtDWMR/d2dGARQm5240aNeTfTf7t+AsVQ1ZWFps2bWHG9BkcO3bc2q6A1r4QVkkPVjcaEjP6BOD/5Ev4tutNRnIi0/5vONO37edSRr5gtQU9WP3k2CcRQggh7ly3VcBSSnUGFmMTH8I8oatb2Vzv+zQ4Y1OG4JVXh5XNhYogKyuLTzd+yozpkfnmWLXyhdBguL8II1ZGL1/8uryI3+PPkpmeRuT7bzLtyz1cyB+sPkMPVj86+FGEEEKIO95tE7CUUs3R17Gz3vML7tCnCPOLSmqxzdyrBg3q07xFs7K7WCHM5iw2bvyUmTMiOXnypN2+Vj56sHqgCF8FGtw98e/0Av6d+2Iym5k96h2mfbGbc+nZebt+jh6s/uugRxBCCCHuOrdFwFJKNUR/VWWNU93dYGARgkVJ/Zqp/2Mx9JUhZXexApjNWaxft47ImbM5ffq03b6WPhBaEeoWJVi5uuP3eB/8u/bDjCIqYiRTtnzL2fzB6gv0YPWDo55BCCGEuFuV+4CllLoPfQkcX0tbB1d41bNsr2v75WC9B+vRpk3rsr1gDrPZzNo164icOYuzZ8/a7WvhDWHB8EARRu2Uswt+7XsT8NRLaK7uRI8fxeRNOzidli9YfYkerA466hmEEEKIu125DlhKqarAdqCipe0xF3jb84ZzuEvllBn2pOVuDxtW9qNXJpOJNWvWMmvWHM6dPWe3r7m3PmJVrwiT15WTM75tuhPQfSAGbz8WTxrHxDVbOJmalbfrVvRgdcCBjyGEEEIIynHAUkoFoYcr64J/jZzhQy8wlvG1V9isOXj//ffRvkO7MrtWZmYma1avZfas2Zw/f8FuXzOvYgQroxGfll0J6jkYQ0Awy2ZO5pOlazmebMrb9Sv0YLXfgY8hhBBCCBvlMmAppbzRR1gesLTVdYKxXuDgOqL5XM2CL1Nyt4cOG4K60ad5JZCZmcmqlWuYM3sOFy5ctNv3mBeEVoAHixCsUAZ8mnUk8OkwnIOrsnL+HD5esISjiRnivsEKAAAOlklEQVR5e25DD1b7CjiLEEIIIRyo3AUspZQbelHLxpa22kaY4AXuZfleMMfqZLC8TKtzTx06PvG4Q8+fkZHBihWrmDsnikuX7Bd7buoFoUHwoEcRXoEqhfe/2xLUOxznKrVYt2wJEbPm8Vd8at6e24EPJVgJIYQQN0+5ClhKKSdgNdDK0lbFABO9wPsmhKvkbNiYnLs9ZEg4BoPBIedOT09nxfKVRM2dx+XLl+32NfHUg9VDRfwq0qtxS4KeCcet1v1sXLuGsdP680dsUt5uO9CD1feOuH8hhBBCFF25CVhKfw8XDTxpaatggMleEOCYjHNDG1MgLafeZs2aNejcpVOpz5mWlsbynGB19epVu33NPOHlIPiHe9Em7Xs2aEJQnyG43/MQm7dsYUy/MH67HJ+329fowWpvqW9eCCGEECVSbgIWMBV40bLhp2CiJwTfpHBl0mC1zSBQ+NBwjMaST6dPTU1jxbLlREXNJzY21tqugLbe8FIg3OdKkZKVx4ONqdBnCB51G/HFtm18FPoah89fzdvtG/RgtafENy2EEEIIhygXAUspNRIYbtn2UDDBE6qX9eeCNr5MhbicElFVq1Xlqae6lug8qSmpLFmyjAXzo7l27Zq13ajgCW/oFwA1XShSsHK/7x9UeHYonvUf5atvdzF6+BMcOnMxb7ed6MFqd4luWAghhBAOd8sDllJqGDDasu2qYLwH3GsE74b/IvXP38hOzzdx26GygRU2c6/Cw0OLPXqVkpLCkiVLWbBgIXHX4qztTgq6+8IL/hBSxE8g3Wo9QMVnh+DVuDnbd+/lo05d+fHE2bzdvkUPVt8V60aFEEIIUeZuacBSSr0AzLBsOwGjPaCBhwvVhr5O7DdfkZ2WWrZVRYHdaXA2Z1HnypVD6NGze5GPTU5OZvGipSyMXkh8fIK13VXB037wnB8EFfGv7FqtDhWeDcf70TZ8vXcfo7t048djp/J224UerHYV+SaFEEIIcVPdsoCllOoCxJATnxTwrju0qFmdOmMmcvWLTSQf/rmssxUAy2y/HBwajpPTjf8sSUlJLF60hIXRi0hIyA1WHgZ43g+e8QXvIg6CuVSuQcVnQvFp9jg7vt/PmG69+O9fx+36KPhO04PVt0U7qxBCCCFulVsSsJRSLYC1ttd/wx26P96BWv83koR9e7i0dkWZj1yBvqDzHzmLOlerVo1eT/e8bv/ExEQWxywmJmYxiYm5CxZ6G6C/P/T0AfciTsx3rliZCs8Mxq9VV3bs28/Ynn344c+/7foo2K3Bh9matrNYDyaEEEKIW+amByylVCNgC+BmaQv3MBL21giCezxD2oljnPh4dOEncLBNNtO7Xhk+tNC5VwkJicQsjGHxoqUkJeV+buhvhIF+0NUHXBQUpei7U2BFKvQehF+7bnxz4AfG9H6eH37/066Pgr0ajMzWtG9K9GBCCCGEuGVuasBSSt2PvgSOj6Wtr5vinYmT8W/ekqyUFI6+9wbZ6WmFn8SBkrLh65xL1apdiyefzP/lYHx8AgujY1iyeCnJybnvEis4QZg/dPTUvxAsymibk18gQT1fJqBjL745+CNjn+3HwV9/t+uj4PucEasdpXk2IYQQQtw6Ny1gKaWqoS/bUsHS1sMFPhozBv9mLQE4HjGS9DP5JnWXma1pkJlTWDR8SJjd6FV8fDzRC2JYumQZKSm5ixNWdoKh/tDKEwyqaG8xjd6+BPXoT0DnPuz878+M7TuAg4d/teujYF9OsNruiGcTQgghxK1zUwKWUqoCeriqZmnr4AQT/u9tgjp0BuDCshjivvumSK/YHGVDTm5ydXWlQ4f2gB6sFsxfyNIly0hNzX1/WMMZXvWHpkVZgDmH0cOLwO4vEvTkc+z86TAR/Qdz4Jcjdn0McCBbfxW4zRHPJIQQQohbr8wDllLKB/214P2WtmZOMHVYOJV69gEg8aeDnJ0XWda3YudIJpzJKc3QvHkzTJkmpsydyuJFS+2C1b0uMNwfGrkWbX4VgMHNg8CuzxLU40V2Hf6diAFD2X/oF/s+cDAbRmZp2leOeiYhhBBClA9lGrCUUm7AZqCRpa2xEWb2fY5qLw0GIPPKJY6O/D+07OyyvJV8vkvP/f3S5cu0atnG7lVgPVd4ww/quhb9nAYXVwK79Cao50t899v/iAh9lf0/5wtWP+QEq62lfQYhhBBClE9lFrCUUk7AGqClpa2eAWY91YU6w98EINts4uh7IzDHx92Ukgy2vs0woNdwhyOHc1/b/TMnWNV2KfotKSdnAp7oSYXeA9j951EihryWL1gZ4ccs+CBL07500CMIIYQQopwqk4CllFLoRUStn+XVNsDsdi2p98Fo67u209Mnkvz7kULOUnaygQSDEUvAUsDDbjDCD6oU4y+ijEYC2j1FhT6D2PP3SfoOezPfq0Cj4qcsjQ/MmvaFwx5ACCGEEOVaWY1gTQdesGxUUWTPqFfH8M+xE8CgV+G8uvUzLm9cW0aXv76dGQaUwYiPKzykTLzpBxWNRZ9jpQwG/Fp3ouKzoXx/8hz9XnuHfT8fsutjVPycpfGBOVv7vAweQQghhBDlmMMDllJqFPCKZTtQkTU5wNP46CfTMLjqE5pSj/7FyU/GOvrSRfZDBrzjkUlLt+zcdXqKQil8m7UnuG8435+5RP8RH7A/T7ByUhwy68HqM0fftxBCCCFuD0rTNMedTKlX0UevAPBWmGa4Kee2k6bil1PrKis5iV9feo6M82ftR4yU5Rz2bXYBSNn8UHn6FHQOm3NZ2rScn4aCznuda/s0aUWlvkPYd/EaEbPm5Jtj5aT4xazxgaZpWxBCCCHEXc1hI1hKqb7ANMu2G2ROdMHlkf4vW8MVmsaxUe+Rcf6soy5bbMWdS+/zSAuCnw9lf2wSA9+PyDfHyllxxKTxvilb2+y4uxRCCCHE7cwhAStnfcGF5OQXJzB97IpLw0ceodrgIdZ+5xctIP773Tf9i8GS8Hm0JZVeCOVAbBKDRk9g36HDdvudFb+aNN7PzNY23aJbFEIIIUQ5VeqApZQyAvNszqWNcsG5vqcHtd8bZZ3UnrD/e85Gzy3t5cqcb5NWBD8/mANXkxj84Xj25am87qz43aTxXma29uktukUhhBBClHOOGMF6FWhs2ehoJOsRA07Vwl/BNSQEgOy0VI5FjISbXEy0yJTCt0krKr0wmANXEhn4QQT7j/xm18VF8UemxnsmjU81R05cE0IIIcQdp1QBSykVAHxk2fZTZIY64+Jd/58E9+pt7Xd+SQym2Njy92ZQKXybts4JVgkMem8M+3/93a6Li+J/mRrvZmpslGAlhBBCiKIo7QhWL8DLsvGaMy7eLi7Ufu9D66vBzEsXubByaSkv42BK4ftYGyr1HczBK/EMemcU+3//066Lu+J4msZbmRobJFgJIYQQojhKG7D6WH6pqtCaGFBVBgzGvWZNa4fTs2eQnZFRPia2K4Vf8zZUeiGUg5fjGPjGOxz4+7hdFx8DZ5OzeT1NY50EKyGEEEKURIkDllKqIjbrDLYyoFxDKlP5hf7WPim//Urs9nKwprFS+LVsR6XnB7H//GUGDH+DgyfO2HUJMHApE15PzGalBCshhBBClEZpRrDuIadeJ0ArI4Q83xflZLR2ODV9MtzKrKIM+LdsR6W+g9l37CQvDXmV/569aNelgpE4V8XbZ80skGAlhBBCCEcoTcCqaPnFDaiuoEKnrnYd0s+dyXvMzaEM+LdqT6W+g9lz+FdeGhjGfy9etetSwUh8oIGRf5qYpWlaOf28UQghhBC3I4cErAzAOSAQo6enXQfX4BBM12JLcYliUgb8W7cnpO9gdu3dS/9+L/NjbIJdlyAjcf4GRv5tYvZlswQrIYQQQjie4cZdCmVNThqAv3++DpWeea4Upy8GZSCg7RPUnb+K3wOr0OG5F+g1fopduAo0EFfLiWFXswj6K1OLlFErIYQQQpSV0gQsu7Vjjpw8layZTHYdAjt0xPOBuqW4xPUpg4GAdp24P3IRvzh50OHZ5+kzeyE/J6ZZ+wQYiKvuxNDYbIKOmzR5HSiEEEKIMqdKOq9bKWUAEgFPAB/FxZ8XzKtU4eF/2fVLPvILfw4fQlZ6am6lBmU5h+0JC25TNvtQgMGAT/1G+DZtgcc997Nt/RqmbtvJLxn2ucnfwDV3xfvns4iSUCWEEEKIm6nEAQtAKTUDeMWy3bVKyLXlX3wRkLdf+qmT/P3+W6Qd+zvnQMvxticruM0SsDzur0tguycIaNuRzIsX+HzOTGbu+y+H7AfN8DNwzVXx3qUs5muallXihxNCCCGEKKHSBqxKwHHA3dI26dne2uD/eyd/WVFNI+HAPi5vXEP8vj1oWVk3DFiuVasS2O4JAjt0wskvgGvbPuerlcuJOn6OX8z2p/c1EOsE78Vms0CClRBCCCFupVIFLACl1CjgQ9u28Nat+HjqFJQquHy7ZjaRfuokacePknbyONlpaXavAQ0urvg1a4VXvYdI+uUnrn62gZ3bt7EwyZwvWLkrzmdqvJsFyyRYCSGEEKI8cETAUsAywO6TwXa1ajB35kwqVqtW+LGFbJjirnH1y81c3rKRb0+eZm0G+YKVEU5mwSgkWAkhhBCinCl1wAJQSjkDW4DHbdudgFY1q9O/b186deuGk5N92S3bgKVp2ST+sJ8rWzbw9+5dfJ5q5nMTXM0/Pf0AMAnYKMFKCCGEEOWRQwIWgFLKCIxAf13olne/j0HRokIAnRrUp8VD9XA2Gq3zrcxJSVz9eit7zl5giwkOmCBPrsoGNgOTNE3b65AbFkIIIYQoIw4LWNYTKvUAMAdoVVgfDwVtneApF317jxnTlky0WA2XPF3TgMXAFE3T/nbojQohhBBClBGHByzriZWqB7yk4EXNZlmdIrgGfI7+ynGrpmlJZXKDQgghhBBlpMwClvUCSjkBjwD/yPmnPlAPMKMvt3M15+dR4DNgr8ytEkIIIcTt7P8B4pywXnfQzqIAAAAASUVORK5CYII=;rotation=-45;" vertex="1" parent="1">
          <mxGeometry x="19.89" y="60" width="111.11" height="40" as="geometry" />
        </mxCell>
        <mxCell id="wt083JTpK_vqgpHAAwVP-35" style="edgeStyle=orthogonalEdgeStyle;rounded=0;orthogonalLoop=1;jettySize=auto;html=1;exitX=0;exitY=0.75;exitDx=0;exitDy=0;entryX=0.5;entryY=1;entryDx=0;entryDy=0;strokeWidth=2;fillColor=#d5e8d4;strokeColor=#82b366;" edge="1" parent="1" source="wt083JTpK_vqgpHAAwVP-10" target="wt083JTpK_vqgpHAAwVP-19">
          <mxGeometry relative="1" as="geometry">
            <Array as="points">
              <mxPoint x="630" y="80" />
              <mxPoint x="578" y="80" />
            </Array>
          </mxGeometry>
        </mxCell>
        <mxCell id="wt083JTpK_vqgpHAAwVP-10" value="" style="shape=image;verticalLabelPosition=bottom;labelBackgroundColor=default;verticalAlign=top;aspect=fixed;imageAspect=0;image=https://pplx-res.cloudinary.com/image/upload/v1748954093/gpt4o_images/kotvpwzs2bvehphlxoh7.png;" vertex="1" parent="1">
          <mxGeometry x="630" y="25" width="70" height="70" as="geometry" />
        </mxCell>
        <mxCell id="wt083JTpK_vqgpHAAwVP-32" style="edgeStyle=orthogonalEdgeStyle;rounded=0;orthogonalLoop=1;jettySize=auto;html=1;entryX=0.5;entryY=0;entryDx=0;entryDy=0;strokeWidth=2;fillColor=#f8cecc;strokeColor=#b85450;" edge="1" parent="1" source="wt083JTpK_vqgpHAAwVP-11" target="wt083JTpK_vqgpHAAwVP-1">
          <mxGeometry relative="1" as="geometry" />
        </mxCell>
        <mxCell id="wt083JTpK_vqgpHAAwVP-11" value="" style="shape=image;verticalLabelPosition=bottom;labelBackgroundColor=default;verticalAlign=top;aspect=fixed;imageAspect=0;image=https://static.vecteezy.com/system/resources/previews/021/755/070/non_2x/electonic-headphone-amp-cartoon-illustration-vector.jpg;clipPath=inset(33.33% 4% 33.33% 3.33%);" vertex="1" parent="1">
          <mxGeometry x="100" y="60" width="55.6" height="20" as="geometry" />
        </mxCell>
        <mxCell id="wt083JTpK_vqgpHAAwVP-42" style="edgeStyle=orthogonalEdgeStyle;rounded=0;orthogonalLoop=1;jettySize=auto;html=1;exitX=1;exitY=0.75;exitDx=0;exitDy=0;entryX=0.5;entryY=1;entryDx=0;entryDy=0;curved=1;fillColor=#dae8fc;strokeColor=#6c8ebf;strokeWidth=2;" edge="1" parent="1" source="wt083JTpK_vqgpHAAwVP-14" target="wt083JTpK_vqgpHAAwVP-17">
          <mxGeometry relative="1" as="geometry" />
        </mxCell>
        <mxCell id="wt083JTpK_vqgpHAAwVP-14" value="" style="shape=image;verticalLabelPosition=bottom;labelBackgroundColor=default;verticalAlign=top;aspect=fixed;imageAspect=0;image=https://img.freepik.com/premium-vector/red-drum-set-vector-design-drum-kit-flat-style-clipart-percussion-family-musical-instruments_695709-13.jpg;clipPath=inset(4.72% 8.33% 5.66% 8.67%);" vertex="1" parent="1">
          <mxGeometry x="22" y="282.5" width="106.21" height="81.0437751004016" as="geometry" />
        </mxCell>
        <mxCell id="wt083JTpK_vqgpHAAwVP-15" value="" style="shape=image;verticalLabelPosition=bottom;labelBackgroundColor=default;verticalAlign=top;aspect=fixed;imageAspect=0;image=https://thumb.ac-illust.com/28/285230b919d172bfe6126046b0b26edd_t.jpeg;flipH=1;" vertex="1" parent="1">
          <mxGeometry x="586.69" y="282.5" width="106.82" height="80" as="geometry" />
        </mxCell>
        <mxCell id="wt083JTpK_vqgpHAAwVP-29" style="edgeStyle=orthogonalEdgeStyle;rounded=0;orthogonalLoop=1;jettySize=auto;html=1;exitX=1;exitY=0.5;exitDx=0;exitDy=0;strokeWidth=2;fillColor=#f8cecc;strokeColor=#b85450;dashed=1;dashPattern=1 1;curved=1;" edge="1" parent="1" source="wt083JTpK_vqgpHAAwVP-16" target="wt083JTpK_vqgpHAAwVP-1">
          <mxGeometry relative="1" as="geometry" />
        </mxCell>
        <mxCell id="wt083JTpK_vqgpHAAwVP-16" value="" style="shape=image;verticalLabelPosition=bottom;labelBackgroundColor=default;verticalAlign=top;aspect=fixed;imageAspect=0;image=https://www.gtec.at/wp-content/uploads/2023/09/unicorn-hybrid-black-bundle.jpg;clipPath=inset(3.78% 26.33% 21.11% 25%);" vertex="1" parent="1">
          <mxGeometry x="160.00000000000003" y="130" width="51.83" height="60" as="geometry" />
        </mxCell>
        <mxCell id="wt083JTpK_vqgpHAAwVP-43" style="edgeStyle=orthogonalEdgeStyle;rounded=0;orthogonalLoop=1;jettySize=auto;html=1;exitX=1;exitY=0.5;exitDx=0;exitDy=0;curved=1;fillColor=#dae8fc;strokeColor=#6c8ebf;strokeWidth=2;" edge="1" parent="1" source="wt083JTpK_vqgpHAAwVP-17" target="wt083JTpK_vqgpHAAwVP-2">
          <mxGeometry relative="1" as="geometry" />
        </mxCell>
        <mxCell id="wt083JTpK_vqgpHAAwVP-17" value="" style="shape=image;verticalLabelPosition=bottom;labelBackgroundColor=default;verticalAlign=top;aspect=fixed;imageAspect=0;image=https://static.vecteezy.com/system/resources/previews/021/755/070/non_2x/electonic-headphone-amp-cartoon-illustration-vector.jpg;clipPath=inset(33.33% 4% 33.33% 3.33%);" vertex="1" parent="1">
          <mxGeometry x="133.70000000000005" y="292.5" width="55.6" height="20" as="geometry" />
        </mxCell>
        <mxCell id="wt083JTpK_vqgpHAAwVP-18" value="" style="shape=image;verticalLabelPosition=bottom;labelBackgroundColor=default;verticalAlign=top;aspect=fixed;imageAspect=0;image=https://static.vecteezy.com/system/resources/previews/021/755/070/non_2x/electonic-headphone-amp-cartoon-illustration-vector.jpg;clipPath=inset(33.33% 4% 33.33% 3.33%);" vertex="1" parent="1">
          <mxGeometry x="526.69" y="302.5" width="55.6" height="20" as="geometry" />
        </mxCell>
        <mxCell id="wt083JTpK_vqgpHAAwVP-19" value="" style="shape=image;verticalLabelPosition=bottom;labelBackgroundColor=default;verticalAlign=top;aspect=fixed;imageAspect=0;image=https://static.vecteezy.com/system/resources/previews/021/755/070/non_2x/electonic-headphone-amp-cartoon-illustration-vector.jpg;clipPath=inset(33.33% 4% 33.33% 3.33%);" vertex="1" parent="1">
          <mxGeometry x="550" y="40" width="55.6" height="20" as="geometry" />
        </mxCell>
        <mxCell id="wt083JTpK_vqgpHAAwVP-20" value="" style="shape=image;verticalLabelPosition=bottom;labelBackgroundColor=default;verticalAlign=top;aspect=fixed;imageAspect=0;image=https://www.gtec.at/wp-content/uploads/2023/09/unicorn-hybrid-black-bundle.jpg;clipPath=inset(3.78% 26.33% 21.11% 25%);" vertex="1" parent="1">
          <mxGeometry x="538.1" y="90" width="51.9" height="60" as="geometry" />
        </mxCell>
        <mxCell id="wt083JTpK_vqgpHAAwVP-45" style="edgeStyle=orthogonalEdgeStyle;rounded=0;orthogonalLoop=1;jettySize=auto;html=1;exitX=1;exitY=0.5;exitDx=0;exitDy=0;curved=1;fillColor=#dae8fc;strokeColor=#6c8ebf;strokeWidth=2;dashed=1;dashPattern=1 1;" edge="1" parent="1" source="wt083JTpK_vqgpHAAwVP-21" target="wt083JTpK_vqgpHAAwVP-2">
          <mxGeometry relative="1" as="geometry" />
        </mxCell>
        <mxCell id="wt083JTpK_vqgpHAAwVP-21" value="" style="shape=image;verticalLabelPosition=bottom;labelBackgroundColor=default;verticalAlign=top;aspect=fixed;imageAspect=0;image=https://www.gtec.at/wp-content/uploads/2023/09/unicorn-hybrid-black-bundle.jpg;clipPath=inset(3.78% 26.33% 21.11% 25%);" vertex="1" parent="1">
          <mxGeometry x="181.00000000000003" y="370" width="51.9" height="60" as="geometry" />
        </mxCell>
        <mxCell id="wt083JTpK_vqgpHAAwVP-22" value="" style="shape=image;verticalLabelPosition=bottom;labelBackgroundColor=default;verticalAlign=top;aspect=fixed;imageAspect=0;image=https://www.gtec.at/wp-content/uploads/2023/09/unicorn-hybrid-black-bundle.jpg;clipPath=inset(3.78% 26.33% 21.11% 25%);" vertex="1" parent="1">
          <mxGeometry x="516.6899999999999" y="377.5" width="51.9" height="60" as="geometry" />
        </mxCell>
        <mxCell id="wt083JTpK_vqgpHAAwVP-28" style="edgeStyle=orthogonalEdgeStyle;rounded=0;orthogonalLoop=1;jettySize=auto;html=1;exitX=0.75;exitY=0;exitDx=0;exitDy=0;strokeWidth=2;fillColor=#f8cecc;strokeColor=#b85450;dashed=1;dashPattern=1 1;curved=1;" edge="1" parent="1" source="wt083JTpK_vqgpHAAwVP-23" target="wt083JTpK_vqgpHAAwVP-1">
          <mxGeometry relative="1" as="geometry">
            <Array as="points">
              <mxPoint x="130" y="120" />
              <mxPoint x="160" y="120" />
              <mxPoint x="160" y="100" />
            </Array>
          </mxGeometry>
        </mxCell>
        <mxCell id="wt083JTpK_vqgpHAAwVP-23" value="" style="shape=image;verticalLabelPosition=bottom;labelBackgroundColor=default;verticalAlign=top;aspect=fixed;imageAspect=0;image=https://i.pcmag.com/imagery/roundups/02Qp8NssQCHrqFVFEOXnkxr-28..v1623684908.jpg;clipPath=inset(2.98% 19.67% 7.74% 25.33%);" vertex="1" parent="1">
          <mxGeometry x="80" y="130" width="66" height="60" as="geometry" />
        </mxCell>
        <mxCell id="wt083JTpK_vqgpHAAwVP-24" value="" style="shape=image;verticalLabelPosition=bottom;labelBackgroundColor=default;verticalAlign=top;aspect=fixed;imageAspect=0;image=https://i.pcmag.com/imagery/roundups/02Qp8NssQCHrqFVFEOXnkxr-28..v1623684908.jpg;clipPath=inset(2.98% 19.67% 7.74% 25.33%);" vertex="1" parent="1">
          <mxGeometry x="619.53" y="95" width="66" height="60" as="geometry" />
        </mxCell>
        <mxCell id="wt083JTpK_vqgpHAAwVP-44" style="edgeStyle=orthogonalEdgeStyle;rounded=0;orthogonalLoop=1;jettySize=auto;html=1;exitX=0.5;exitY=0;exitDx=0;exitDy=0;entryX=0;entryY=0.75;entryDx=0;entryDy=0;curved=1;fillColor=#dae8fc;strokeColor=#6c8ebf;strokeWidth=2;dashed=1;dashPattern=1 1;" edge="1" parent="1" source="wt083JTpK_vqgpHAAwVP-25" target="wt083JTpK_vqgpHAAwVP-2">
          <mxGeometry relative="1" as="geometry" />
        </mxCell>
        <mxCell id="wt083JTpK_vqgpHAAwVP-25" value="" style="shape=image;verticalLabelPosition=bottom;labelBackgroundColor=default;verticalAlign=top;aspect=fixed;imageAspect=0;image=https://i.pcmag.com/imagery/roundups/02Qp8NssQCHrqFVFEOXnkxr-28..v1623684908.jpg;clipPath=inset(2.98% 19.67% 7.74% 25.33%);" vertex="1" parent="1">
          <mxGeometry x="104.99999999999997" y="380" width="66" height="60" as="geometry" />
        </mxCell>
        <mxCell id="wt083JTpK_vqgpHAAwVP-51" style="edgeStyle=orthogonalEdgeStyle;rounded=0;orthogonalLoop=1;jettySize=auto;html=1;exitX=0;exitY=0.5;exitDx=0;exitDy=0;entryX=1;entryY=0.75;entryDx=0;entryDy=0;curved=1;strokeWidth=2;fillColor=#ffe6cc;strokeColor=#d79b00;dashed=1;dashPattern=1 1;" edge="1" parent="1" source="wt083JTpK_vqgpHAAwVP-26" target="wt083JTpK_vqgpHAAwVP-4">
          <mxGeometry relative="1" as="geometry">
            <Array as="points">
              <mxPoint x="567.98" y="393" />
              <mxPoint x="567.98" y="355" />
            </Array>
          </mxGeometry>
        </mxCell>
        <mxCell id="wt083JTpK_vqgpHAAwVP-26" value="" style="shape=image;verticalLabelPosition=bottom;labelBackgroundColor=default;verticalAlign=top;aspect=fixed;imageAspect=0;image=https://i.pcmag.com/imagery/roundups/02Qp8NssQCHrqFVFEOXnkxr-28..v1623684908.jpg;clipPath=inset(2.98% 19.67% 7.74% 25.33%);" vertex="1" parent="1">
          <mxGeometry x="586.69" y="362.5" width="66" height="60" as="geometry" />
        </mxCell>
        <mxCell id="wt083JTpK_vqgpHAAwVP-31" value="" style="endArrow=classic;html=1;rounded=0;entryX=0.5;entryY=1;entryDx=0;entryDy=0;strokeWidth=2;fillColor=#f8cecc;strokeColor=#b85450;" edge="1" parent="1" target="wt083JTpK_vqgpHAAwVP-11">
          <mxGeometry width="50" height="50" relative="1" as="geometry">
            <mxPoint x="68.17" y="94.91" as="sourcePoint" />
            <mxPoint x="148.17" y="94.91" as="targetPoint" />
            <Array as="points">
              <mxPoint x="128" y="95" />
            </Array>
          </mxGeometry>
        </mxCell>
        <mxCell id="wt083JTpK_vqgpHAAwVP-37" value="" style="endArrow=classic;html=1;rounded=0;exitX=0;exitY=1;exitDx=0;exitDy=0;curved=1;strokeWidth=2;fillColor=#d5e8d4;strokeColor=#82b366;" edge="1" parent="1" source="wt083JTpK_vqgpHAAwVP-19">
          <mxGeometry width="50" height="50" relative="1" as="geometry">
            <mxPoint x="510" y="60" as="sourcePoint" />
            <mxPoint x="490" y="70" as="targetPoint" />
            <Array as="points">
              <mxPoint x="530" y="70" />
            </Array>
          </mxGeometry>
        </mxCell>
        <mxCell id="wt083JTpK_vqgpHAAwVP-39" value="" style="endArrow=classic;html=1;rounded=0;entryX=0.5;entryY=1;entryDx=0;entryDy=0;exitX=0;exitY=0.5;exitDx=0;exitDy=0;curved=1;strokeWidth=2;fillColor=#d5e8d4;strokeColor=#82b366;dashed=1;dashPattern=1 1;" edge="1" parent="1" source="wt083JTpK_vqgpHAAwVP-20" target="wt083JTpK_vqgpHAAwVP-3">
          <mxGeometry width="50" height="50" relative="1" as="geometry">
            <mxPoint x="520" y="130" as="sourcePoint" />
            <mxPoint x="540" y="100" as="targetPoint" />
            <Array as="points">
              <mxPoint x="500" y="130" />
            </Array>
          </mxGeometry>
        </mxCell>
        <mxCell id="wt083JTpK_vqgpHAAwVP-40" value="" style="endArrow=classic;html=1;rounded=0;entryX=0.407;entryY=1;entryDx=0;entryDy=0;exitX=0;exitY=0.75;exitDx=0;exitDy=0;curved=1;entryPerimeter=0;strokeWidth=2;fillColor=#d5e8d4;strokeColor=#82b366;dashed=1;dashPattern=1 1;" edge="1" parent="1" source="wt083JTpK_vqgpHAAwVP-24" target="wt083JTpK_vqgpHAAwVP-3">
          <mxGeometry width="50" height="50" relative="1" as="geometry">
            <mxPoint x="480" y="200" as="sourcePoint" />
            <mxPoint x="530" y="150" as="targetPoint" />
            <Array as="points">
              <mxPoint x="530" y="190" />
              <mxPoint x="450" y="150" />
            </Array>
          </mxGeometry>
        </mxCell>
        <mxCell id="wt083JTpK_vqgpHAAwVP-47" value="" style="endArrow=classic;html=1;rounded=0;entryX=0.724;entryY=1.046;entryDx=0;entryDy=0;entryPerimeter=0;curved=1;strokeWidth=2;fillColor=#ffe6cc;strokeColor=#d79b00;" edge="1" parent="1" target="wt083JTpK_vqgpHAAwVP-18">
          <mxGeometry width="50" height="50" relative="1" as="geometry">
            <mxPoint x="644.1400000000001" y="337.25" as="sourcePoint" />
            <mxPoint x="582.29" y="307.75" as="targetPoint" />
            <Array as="points">
              <mxPoint x="567.98" y="350" />
            </Array>
          </mxGeometry>
        </mxCell>
        <mxCell id="wt083JTpK_vqgpHAAwVP-48" value="" style="endArrow=classic;html=1;rounded=0;exitX=0;exitY=0.5;exitDx=0;exitDy=0;strokeColor=#d79b00;curved=1;strokeWidth=2;fillColor=#ffe6cc;" edge="1" parent="1" source="wt083JTpK_vqgpHAAwVP-18">
          <mxGeometry width="50" height="50" relative="1" as="geometry">
            <mxPoint x="526.69" y="322.5" as="sourcePoint" />
            <mxPoint x="496.69" y="332.5" as="targetPoint" />
            <Array as="points">
              <mxPoint x="507.98" y="320" />
            </Array>
          </mxGeometry>
        </mxCell>
        <mxCell id="wt083JTpK_vqgpHAAwVP-50" style="edgeStyle=orthogonalEdgeStyle;rounded=0;orthogonalLoop=1;jettySize=auto;html=1;exitX=0;exitY=0.5;exitDx=0;exitDy=0;entryX=0.497;entryY=0.969;entryDx=0;entryDy=0;entryPerimeter=0;curved=1;strokeWidth=2;fillColor=#ffe6cc;strokeColor=#d79b00;dashed=1;dashPattern=1 1;" edge="1" parent="1" source="wt083JTpK_vqgpHAAwVP-22" target="wt083JTpK_vqgpHAAwVP-4">
          <mxGeometry relative="1" as="geometry" />
        </mxCell>
        <mxCell id="wt083JTpK_vqgpHAAwVP-53" value="" style="shape=image;verticalLabelPosition=bottom;labelBackgroundColor=default;verticalAlign=top;aspect=fixed;imageAspect=0;image=https://static.vecteezy.com/system/resources/previews/024/451/314/non_2x/wifi-router-icon-design-template-simple-and-modern-free-vector.jpg;clipPath=inset(21.33% 14% 20% 13.67%);" vertex="1" parent="1">
          <mxGeometry x="307.93" y="180" width="86.31" height="70" as="geometry" />
        </mxCell>
        <mxCell id="wt083JTpK_vqgpHAAwVP-54" value="" style="endArrow=classic;html=1;rounded=0;entryX=0.25;entryY=0;entryDx=0;entryDy=0;curved=1;strokeWidth=2;dashed=1;dashPattern=1 1;" edge="1" parent="1" target="wt083JTpK_vqgpHAAwVP-53">
          <mxGeometry width="50" height="50" relative="1" as="geometry">
            <mxPoint x="261" y="90" as="sourcePoint" />
            <mxPoint x="321" y="100" as="targetPoint" />
            <Array as="points">
              <mxPoint x="320" y="90" />
            </Array>
          </mxGeometry>
        </mxCell>
        <mxCell id="wt083JTpK_vqgpHAAwVP-55" value="" style="endArrow=classic;html=1;rounded=0;exitX=0;exitY=0.5;exitDx=0;exitDy=0;entryX=0.75;entryY=0;entryDx=0;entryDy=0;curved=1;strokeWidth=2;dashed=1;dashPattern=1 1;" edge="1" parent="1" source="wt083JTpK_vqgpHAAwVP-3" target="wt083JTpK_vqgpHAAwVP-53">
          <mxGeometry width="50" height="50" relative="1" as="geometry">
            <mxPoint x="300" y="170" as="sourcePoint" />
            <mxPoint x="350" y="120" as="targetPoint" />
            <Array as="points">
              <mxPoint x="370" y="110" />
            </Array>
          </mxGeometry>
        </mxCell>
        <mxCell id="wt083JTpK_vqgpHAAwVP-57" value="" style="endArrow=classic;html=1;rounded=0;entryX=0.25;entryY=1;entryDx=0;entryDy=0;curved=1;strokeWidth=2;dashed=1;dashPattern=1 1;" edge="1" parent="1" target="wt083JTpK_vqgpHAAwVP-53">
          <mxGeometry width="50" height="50" relative="1" as="geometry">
            <mxPoint x="290" y="320" as="sourcePoint" />
            <mxPoint x="340" y="270" as="targetPoint" />
            <Array as="points">
              <mxPoint x="330" y="300" />
            </Array>
          </mxGeometry>
        </mxCell>
      </root>
    </mxGraphModel>
  </diagram>
</mxfile>
